<svg id="Layer_1" data-name="Layer 1" xmlns="http://www.w3.org/2000/svg" viewBox="0 0 400 400"><path d="M330.35,268.43c16.94,0,31.8-7.82,38.58-19.29V237.93a6.25,6.25,0,0,1,6.26-6.52,6.51,6.51,0,0,1,6.51,6.78,6.68,6.68,0,0,1,6.78,6.52c0,3.65-3.13,6.26-7.3,6.26H371v13.55h24V134.18H371V210.3c0,20.85-15.12,37.28-35.46,37.28-19,0-30.5-11.21-30.5-28.16V134.18h-24v87.59c0,28.15,20.59,46.66,49.27,46.66M182,264.52h32.06l48.75-130.34H238.06l-37.28,104,7,6.52a7.38,7.38,0,0,1,2.34,5.21,6.32,6.32,0,0,1-6.25,6.26,7.37,7.37,0,0,1-5.22-2.35,7.35,7.35,0,0,1-5.21,2.35,6.33,6.33,0,0,1-6.26-6.26,7.39,7.39,0,0,1,2.35-5.21l7-6.52-37.28-104H133.78ZM56.1,249.92c-16.17,0-26.6-8.6-26.6-21.9,0-13.55,9.39-19.81,23.73-21.37L91,202.48V192.05a6.24,6.24,0,0,1,6.25-6.52,6.52,6.52,0,0,1,6.52,6.78,6.48,6.48,0,0,1,6.78,6.26c0,3.65-2.87,6.51-7,6.51h-9.9v9.65c0,16.94-15.12,35.19-37.54,35.19m-6,18.51c17.47,0,32.59-7,40.93-18.25v-11a6.23,6.23,0,0,1,6.25-6.51,6.51,6.51,0,0,1,6.52,6.77,6.48,6.48,0,0,1,6.78,6.26c0,3.65-2.87,6.52-7,6.52H94.42a42.42,42.42,0,0,0,1.82,12.25h24.51c-2.87-9.91-3.65-19.29-3.65-33.37v-54c0-29.72-19-45.62-52.4-45.62C27.94,131.57,9.43,154,10,174.32H33.68c.26-14.34,13.81-23.2,30.76-23.2s28.93,8.6,28.93,20.86c0,8.86-5.21,12.77-14.85,13.81L48.8,188.66C19.86,191.53,5,205.87,5,229.33c0,24.76,19.81,39.1,45.1,39.1" style="fill:#1d1d1b"/></svg>