<?xml version="1.0" encoding="UTF-8"?>
<!-- Generator: Adobe Illustrator 16.0.0, SVG Export Plug-In . SVG Version: 6.00 Build 0)  -->
<!DOCTYPE svg PUBLIC "-//W3C//DTD SVG 1.1//EN" "http://www.w3.org/Graphics/SVG/1.1/DTD/svg11.dtd">
<svg version="1.1" xmlns="http://www.w3.org/2000/svg" xmlns:xlink="http://www.w3.org/1999/xlink" x="0px" y="0px" width="409.481px" height="409.48px" viewBox="0 0 409.481 409.48" enable-background="new 0 0 409.481 409.48" xml:space="preserve">
<g id="Layer_2" display="none">
</g>
<g id="bu" display="none">
</g>
<g id="Studovna1" display="none">
</g>
<g id="Studovna2" display="none">
</g>
<g id="Studovna3" display="none">
</g>
<g id="O_projektu" display="none">
</g>
<g id="Účet">
	<g>
		<path fill-rule="evenodd" clip-rule="evenodd" fill="#235183" d="M163.693,151.791c-0.223-0.43-0.342-0.792-0.564-1.071    c-0.791-0.995-1.732-1.861-2.297-3.043c-0.74-1.547-1.65-3.008-2.021-4.722c-0.254-1.165-0.738-2.282-0.963-3.45    c-0.457-2.356-0.424-4.726-0.305-7.134c0.119-2.372,0.605-4.658,0.977-6.972c0.16-1.008,0.637-1.963,0.938-2.953    c0.748-2.455,1.758-4.803,2.85-7.119c1.016-2.15,2.473-4.009,3.842-5.928c1.738-2.436,4.023-4.304,6.312-6.17    c1.238-1.01,2.48-2.013,3.727-3.014c1.816-1.461,3.779-2.675,5.955-3.543c0.629-0.25,1.209-0.62,1.824-0.906    c0.469-0.217,0.959-0.381,1.434-0.581c0.918-0.386,1.824-0.803,2.752-1.163c0.777-0.302,1.568-0.583,2.371-0.8    c3.389-0.917,6.748-1.968,10.295-2.128c0.695-0.032,0.947-0.286,0.986-1.085c0.049-0.959,0.029-1.923,0.014-2.884    c-0.029-1.594-0.1-3.188-0.113-4.782c-0.004-0.642-0.309-1.052-0.809-1.371c-1.553-0.99-2.545-2.393-2.979-4.17    c-0.266-1.083-0.59-2.181-0.635-3.282c-0.164-4.057,1.588-7.094,5.188-8.974c0.793-0.414,1.754-0.655,2.648-0.692    c1.551-0.064,3.115,0.054,4.67,0.168c1.484,0.109,2.602,1.024,3.625,1.975c1.787,1.661,2.766,3.687,3.006,6.194    c0.346,3.617-1.135,6.32-3.688,8.62c-0.354,0.318-0.521,0.606-0.529,1.114c-0.033,2.674-0.133,5.348-0.199,8.022    c-0.021,0.838,0.123,0.924,0.986,1.17c1.65,0.471,3.295,0.972,4.922,1.517c1.438,0.48,2.904,0.924,4.256,1.589    c1.682,0.827,3.287,1.819,4.873,2.824c1.514,0.96,2.996,1.981,4.426,3.064c1.145,0.868,2.242,1.812,3.264,2.824    c1.672,1.659,3.223,3.441,4.902,5.094c2.104,2.072,4.217,4.141,6.639,5.858c1.846,1.311,2.924,3.116,3.422,5.312    c0.865,3.818,1.768,7.629,2.656,11.441c0.209,0.887,0.311,1.663-0.586,2.355c-0.795,0.613-0.613,1.204,0.266,1.787    c0.594,0.394,1.117,0.896,1.707,1.299c0.818,0.559,1.629,1.147,2.51,1.589c2.645,1.325,5.322,2.583,7.984,3.875    c0.209,0.102,0.459,0.224,0.566,0.408c0.105,0.179,0.135,0.494,0.045,0.669c-0.086,0.164-0.367,0.289-0.574,0.307    c-0.225,0.02-0.469-0.08-0.691-0.166c-1.002-0.39-2-0.793-3-1.192c-0.074-0.03-0.146-0.093-0.221-0.092    c-1.24,0.019-2.268-0.687-3.412-0.99c-1.713-0.455-3.346-1.063-4.77-2.153c-0.117-0.088-0.283-0.11-0.57-0.216    c-0.051,0.412-0.111,0.742-0.129,1.074c-0.092,1.596-0.039,3.215-0.293,4.784c-0.271,1.688-0.799,3.337-1.277,4.985    c-0.115,0.396-0.445,0.753-0.744,1.062c-0.125,0.129-0.477,0.181-0.633,0.096c-0.158-0.088-0.225-0.378-0.291-0.592    c-0.031-0.102,0.023-0.234,0.049-0.351c0.248-1.127,0.471-2.26,0.756-3.378c0.416-1.629,0.232-3.232,0.043-4.876    c-0.195-1.703-0.693-3.263-1.494-4.899c-0.322,0.101-0.678,0.146-0.961,0.312c-1.137,0.667-2.205,0.748-3.332-0.077    c-0.533-0.391-1.221-0.567-1.826-0.863c-1.822-0.889-3.291-2.248-4.773-3.591c-0.617-0.559-1.324-1.024-1.91-1.611    c-1.1-1.103-2.264-2.173-3.176-3.422c-1.223-1.676-2.207-3.514-2.625-5.602c-0.406-2.038-0.293-4.041,0.184-6.052    c0.268-1.128,0.387-2.251,0.121-3.44c-0.328-1.476-1.115-2.602-2.141-3.641c-1.83-1.857-4.09-2.993-6.434-4.052    c-2.107-0.954-4.326-1.371-6.568-1.774c-0.691-0.125-1.357-0.391-2.193-0.639c-0.102,0.575-0.254,1.063-0.266,1.555    c-0.062,2.681-0.059,5.364-0.141,8.045c-0.115,3.673-0.293,7.344-0.436,11.017c-0.104,2.631-0.182,5.264-0.297,7.895    c-0.084,1.91-0.252,3.817-0.312,5.728c-0.068,2.149-0.047,4.302-0.09,6.452c-0.033,1.672-0.105,3.343-0.156,5.015    c-0.037,1.193-0.084,2.386-0.094,3.58c-0.004,0.506,0.242,0.82,0.814,0.805c1.75-0.046,3.502-0.134,5.252-0.098    c2.672,0.056,5.342,0.238,8.016,0.296c1.756,0.038,3.518-0.047,5.275-0.082c1.518-0.03,3.037-0.058,4.555-0.104    c2.037-0.062,4.074-0.165,6.113-0.208c1.236-0.026,2.477,0.029,3.715,0.05c2.834,0.048,5.67,0.13,8.504,0.137    c2.551,0.007,5.1-0.091,7.648-0.1c2.119-0.007,4.236,0.065,6.355,0.071c1.316,0.004,2.635-0.068,3.953-0.068    c1.057,0,1.039,0.1,1.408,1.085c0.656,1.756,1.375,3.492,2.143,5.203c1.555,3.463,3.174,6.896,4.736,10.355    c1.053,2.328,2.035,4.688,3.08,7.019c0.85,1.895,1.758,3.763,2.619,5.653c1.025,2.255,2.031,4.519,3.039,6.782    c0.729,1.637,1.438,3.281,2.166,4.918c0.975,2.19,1.967,4.373,2.934,6.566c0.742,1.681,1.453,3.376,2.191,5.06    c1.059,2.414,2.104,4.835,3.201,7.231c1.35,2.946,2.744,5.871,4.127,8.802c0.629,1.335,0.586,1.43-0.355,2.514    c-0.49,0.567-0.867,1.24-1.254,1.89c-1.557,2.605-3.625,4.763-5.891,6.745c-1.77,1.549-3.582,3.059-5.637,4.214    c-1.736,0.977-3.525,1.867-5.334,2.705c-2.371,1.098-4.914,1.7-7.471,2.131c-2.199,0.371-4.434,0.586-6.682,0.333    c-0.873-0.098-1.756-0.124-2.635-0.127c-3.432-0.011-6.561-1.208-9.703-2.389c-2.99-1.123-5.621-2.863-8.152-4.742    c-1.432-1.063-2.66-2.399-4-3.589c-1.734-1.538-3.004-3.496-4.678-5.095c-0.768-0.735-1.34-1.683-1.957-2.566    c-0.141-0.202-0.162-0.548-0.115-0.806c0.098-0.547,0.205-1.115,0.436-1.614c1.193-2.574,2.43-5.128,3.645-7.692    c1.812-3.831,3.645-7.654,5.422-11.501c1.453-3.147,2.85-6.321,4.248-9.493c1.727-3.914,3.408-7.847,5.148-11.754    c1.039-2.334,2.174-4.625,3.23-6.951c1.154-2.542,2.252-5.111,3.406-7.654c0.875-1.929,1.818-3.827,2.699-5.754    c0.631-1.378,1.225-2.774,1.795-4.179c0.125-0.306,0.084-0.68,0.119-1.018c-1.348,0-2.574-0.011-3.803,0.002    c-2.387,0.027-4.775,0.087-7.162,0.099c-3.525,0.017-7.051,0.016-10.576-0.001c-2.357-0.011-4.715-0.1-7.07-0.084    c-1.758,0.013-3.514,0.179-5.271,0.202c-1.713,0.022-3.43-0.066-5.145-0.078c-1.236-0.008-2.475,0.035-3.711,0.044    c-2.672,0.021-5.342,0.04-8.012,0.053c-1.555,0.007-3.111,0.021-4.666-0.009c-0.594-0.012-1.186-0.181-1.779-0.195    c-0.287-0.006-0.781,0.13-0.822,0.293c-0.07,0.28,0.051,0.712,0.254,0.932c0.287,0.31,0.701,0.525,1.094,0.708    c2.418,1.129,4.857,2.21,7.264,3.362c3.104,1.485,5.637,3.767,8.078,6.111c2.127,2.043,4.107,4.275,5.455,6.936    c0.719,1.417,1.201,2.959,1.723,4.469c0.312,0.903,0.617,1.839,0.711,2.782c0.172,1.741,0.199,3.485-0.164,5.233    c-0.371,1.789-1.027,3.404-1.998,4.965c-1.283,2.062-2.426,4.213-4.025,6.058c-1.934,2.231-3.939,4.383-6.465,5.996    c-1.305,0.834-2.477,1.878-3.77,2.733c-1.129,0.747-2.359,1.339-3.521,2.04c-1.574,0.951-3.127,1.939-4.689,2.913    c-0.066,0.042-0.123,0.118-0.193,0.139c-1.504,0.435-1.494,1.591-1.5,2.863c-0.016,3.038-0.148,6.075-0.227,9.112    c-0.014,0.478,0.016,0.958,0.008,1.436c-0.031,1.6-0.047,3.201-0.113,4.8c-0.033,0.753,0.164,1.268,0.869,1.666    c1.285,0.723,2.533,1.518,3.758,2.342c2.393,1.614,4.512,3.539,6.488,5.649c1.441,1.542,2.539,3.291,3.479,5.144    c1.205,2.372,1.668,4.905,1.328,7.556c-0.219,1.702-0.299,3.487-1.35,4.921c-0.861,1.177-1.562,2.448-2.596,3.547    c-1.396,1.489-3.189,2.386-4.654,3.716c-1.705,1.545-3.945,2.069-5.822,3.274c-0.422,0.271-0.967,0.375-1.469,0.499    c-0.598,0.147-0.863,0.488-0.875,1.103c-0.072,3.755-0.146,7.51-0.248,11.264c-0.045,1.635-0.24,3.27-0.215,4.902    c0.029,2.15,0.209,4.297,0.322,6.446c0.012,0.2,0.02,0.4,0.016,0.6c-0.004,0.428-0.121,0.876-0.566,0.94    c-0.289,0.042-0.723-0.132-0.918-0.358c-1.736-2.008-3.969-3.459-5.869-5.283c-1.793-1.72-3.137-3.716-3.938-6.064    c-0.373-1.097-0.766-2.204-0.971-3.339c-0.391-2.164,0.207-4.214,1.047-6.18c0.438-1.026,0.947-2.049,1.594-2.952    c0.809-1.13,1.74-2.184,2.715-3.179c0.777-0.796,1.67-1.49,2.562-2.163c0.635-0.479,0.91-1.015,0.877-1.829    c-0.119-2.917-0.195-5.836-0.244-8.756c-0.041-2.392,0.018-4.786-0.043-7.177c-0.033-1.271-0.221-2.539-0.355-3.806    c-0.045-0.424-0.26-0.708-0.689-0.888c-1.436-0.598-2.867-1.205-4.266-1.882c-0.674-0.327-1.273-0.812-1.9-1.234    c-0.822-0.552-1.508-1.327-2.539-1.541c-0.111-0.023-0.227-0.096-0.311-0.176c-1.402-1.307-2.977-2.48-4.143-3.972    c-0.957-1.223-1.463-2.81-2.096-4.267c-0.283-0.65-0.352-1.39-0.576-2.069c-0.561-1.695-0.83-3.434-0.494-5.188    c0.299-1.562,0.719-3.109,1.203-4.625c0.906-2.835,2.672-5.171,4.617-7.353c0.898-1.006,1.977-1.871,3.051-2.699    c2.211-1.703,4.467-3.349,6.719-4.996c0.787-0.575,1.092-1.267,1.016-2.261c-0.107-1.389-0.043-2.791-0.068-4.187    c-0.012-0.598-0.09-1.195-0.094-1.793c-0.014-1.636,0.025-3.272-0.014-4.907c-0.025-1.075-0.207-2.147-0.215-3.222    c-0.01-1.558,0.107-3.117,0.105-4.676c-0.002-1.755-0.074-3.51-0.115-5.266c0-0.04,0-0.08-0.002-0.12    c-0.006-0.458,0.143-1.018-0.068-1.345c-0.184-0.284-0.768-0.398-1.188-0.426c-1.469-0.1-2.691-0.952-4.098-1.255    c-3.188-0.689-6.016-2.331-9.014-3.526c-0.965-0.384-1.926-0.772-2.879-1.18c-0.428-0.183-0.832-0.421-1.246-0.632    c-0.922-0.469-1.84-0.948-2.77-1.403c-1.434-0.702-2.889-1.363-4.312-2.088c-1.172-0.597-2.314-1.25-3.457-1.9    c-0.408-0.231-0.768-0.545-1.17-0.789c-0.648-0.393-1.297-0.797-1.98-1.123c-0.729-0.349-1.385-0.733-1.934-1.365    c-0.93-1.076-2.039-1.621-3.598-1.388c-1.48,0.222-3.02,0.06-4.533,0.06c-1.596,0-3.189,0-4.783-0.017    c-2.355-0.024-4.709-0.064-7.062-0.097c-1.076-0.015-2.15-0.021-3.225-0.043c-0.898-0.019-1.152,0.323-0.775,1.179    c0.547,1.245,1.162,2.46,1.713,3.705c0.842,1.902,1.664,3.812,2.475,5.728c1.494,3.536,2.988,7.071,4.455,10.619    c1.1,2.657,2.148,5.334,3.23,7.999c1.504,3.706,2.961,7.433,4.547,11.103c1.615,3.74,3.381,7.415,5.049,11.133    c1.014,2.259,1.924,4.566,2.955,6.816c1.115,2.433,2.291,4.839,3.494,7.23c0.473,0.94,0.453,1.675-0.279,2.5    c-0.736,0.833-1.328,1.803-1.941,2.74c-2.02,3.085-4.662,5.59-7.545,7.816c-3.564,2.753-7.549,4.81-11.867,6.103    c-2.635,0.789-5.363,1.207-8.135,1.333c-2.738,0.125-5.41-0.219-8.098-0.663c-3.109-0.513-6.064-1.5-8.814-2.965    c-2.449-1.306-4.822-2.752-7.02-4.524c-3.457-2.788-6.049-6.241-8.459-9.884c-0.438-0.661-0.428-1.316-0.086-2.037    c0.807-1.693,1.557-3.412,2.34-5.115c1.15-2.506,2.324-5.001,3.463-7.513c1.283-2.835,2.535-5.685,3.807-8.525    c0.883-1.971,1.785-3.932,2.658-5.908c0.998-2.263,1.945-4.549,2.965-6.802c0.873-1.926,1.828-3.815,2.727-5.73    c1.371-2.921,2.732-5.848,4.086-8.777c1.559-3.374,3.096-6.757,4.658-10.129c1.094-2.358,2.221-4.7,3.318-7.055    c0.336-0.721,0.621-1.466,0.943-2.194c0.256-0.578,0.672-0.78,1.338-0.747c1.193,0.061,2.393-0.027,3.588-0.023    c0.598,0.001,1.195,0.099,1.793,0.1c5.078,0.009,10.154,0.007,15.232,0.002C163.035,151.919,163.264,151.855,163.693,151.791z     M299.379,220.978c-0.191-0.621-0.279-1.072-0.465-1.48c-0.771-1.711-1.6-3.397-2.355-5.116c-1.715-3.911-3.398-7.837-5.1-11.755    c-0.303-0.696-0.646-1.373-0.945-2.07c-0.52-1.213-0.996-2.444-1.531-3.651c-0.611-1.387-1.281-2.749-1.898-4.133    c-0.699-1.57-1.361-3.157-2.055-4.729c-1.146-2.596-2.303-5.187-3.459-7.778c-0.699-1.567-1.389-3.14-2.117-4.694    c-0.982-2.096-2.021-4.165-2.996-6.265c-0.768-1.66-1.471-3.35-2.213-5.023c-0.371-0.839-0.777-1.664-1.141-2.507    c-0.758-1.764-1.49-3.538-2.254-5.299c-0.098-0.223-0.32-0.391-0.551-0.66c-0.189,0.309-0.338,0.493-0.424,0.702    c-0.594,1.438-1.135,2.899-1.768,4.32c-1.104,2.476-2.277,4.921-3.395,7.392c-1.465,3.239-2.908,6.487-4.352,9.735    c-0.861,1.935-1.699,3.879-2.553,5.816c-0.531,1.203-1.068,2.403-1.615,3.599c-0.979,2.142-1.98,4.273-2.947,6.419    c-0.871,1.93-1.701,3.878-2.568,5.811c-0.688,1.531-1.414,3.045-2.102,4.576c-1.215,2.695-2.393,5.406-3.625,8.092    c-1.1,2.397-2.26,4.766-3.379,7.154c-0.508,1.083-0.369,1.307,0.857,1.352c2.516,0.093,5.031,0.207,7.547,0.229    c4.32,0.037,8.639,0.009,12.959,0.01c2.514,0,5.029-0.004,7.543,0.011c0.758,0.005,1.516,0.103,2.273,0.101    c0.918-0.002,1.838-0.111,2.754-0.095c3.23,0.057,6.459,0.166,9.689,0.221c1.996,0.034,3.996,0.02,5.994,0.001    c1.795-0.016,3.59-0.056,5.385-0.108C297.41,221.129,298.242,221.051,299.379,220.978z M142.004,156.67    c-0.162,0.061-0.275,0.067-0.299,0.117c-9.904,20.73-19.336,41.678-28.705,62.653c-0.047,0.108-0.094,0.22-0.119,0.335    c-0.023,0.115-0.031,0.237-0.021,0.354c0.006,0.074,0.059,0.145,0.125,0.292c0.256,0.054,0.559,0.167,0.865,0.174    c1.355,0.03,2.713,0.029,4.07,0.041c2.035,0.018,4.07,0.018,6.105,0.058c2.385,0.046,4.77,0.171,7.154,0.183    c2.836,0.014,5.672-0.052,8.508-0.092c0.758-0.011,1.516-0.083,2.271-0.075c1.639,0.019,3.275,0.111,4.912,0.103    c3.357-0.016,6.713-0.106,10.07-0.114c2.92-0.006,5.842,0.079,8.762,0.085c1.264,0.003,2.527-0.088,3.979-0.144    c-0.223-0.614-0.355-1.103-0.572-1.551c-0.625-1.296-1.324-2.558-1.924-3.866c-0.795-1.738-1.51-3.514-2.283-5.261    c-0.777-1.75-1.604-3.476-2.375-5.228c-1.189-2.705-2.355-5.42-3.521-8.134c-1.119-2.601-2.248-5.197-3.33-7.813    c-0.93-2.251-1.766-4.542-2.709-6.788c-1.424-3.389-2.914-6.75-4.359-10.129c-1.287-3.007-2.545-6.025-3.83-9.032    c-0.77-1.8-1.562-3.59-2.354-5.381C142.303,157.181,142.141,156.923,142.004,156.67z M202.061,101.076    c-0.916,0.151-1.574,0.266-2.232,0.365c-1.105,0.167-2.238,0.219-3.307,0.509c-1.418,0.384-2.816,0.882-4.168,1.46    c-1.051,0.449-2.049,1.046-3.014,1.667c-1.141,0.735-2.285,1.49-3.309,2.373c-1.297,1.117-2.434,2.418-3.713,3.555    c-2.268,2.01-3.791,4.477-4.848,7.289c-0.582,1.552-0.945,3.129-1.006,4.781c-0.039,1.074-0.027,2.153-0.141,3.22    c-0.266,2.511,0.377,4.899,1.352,7.104c1.18,2.672,3.182,4.861,5.219,6.948c2.24,2.295,4.92,4.042,7.592,5.781    c1.035,0.673,2.166,1.194,3.217,1.845c1.527,0.945,3.004,1.973,4.707,2.603c0.711,0.263,1.408,0.568,2.104,0.873    c1.197,0.526,1.701,0.163,1.666-1.17c-0.055-1.995-0.092-3.99-0.111-5.985c-0.021-2.477-0.023-4.954-0.027-7.431    c-0.006-4.596-0.012-9.192-0.014-13.788c0-1.673,0.016-3.346,0.021-5.018c0.002-0.516-0.018-1.031-0.006-1.546    c0.037-1.592,0.125-3.185,0.121-4.777c-0.008-2.943-0.066-5.886-0.102-8.829C202.057,102.356,202.061,101.806,202.061,101.076z     M209.293,194.373c0.936-0.676,1.771-1.157,2.455-1.8c1.541-1.445,3.082-2.905,4.473-4.489c0.709-0.807,1.523-1.663,1.557-2.901    c0.008-0.346,0.193-0.688,0.301-1.032c0.662-2.152,0.078-4.101-1.363-5.648c-1.09-1.17-2.295-2.341-3.908-2.894    c-0.447-0.153-0.828-0.485-1.262-0.691c-0.553-0.264-1.127-0.484-1.91-0.814c0,1.264,0.031,2.287-0.006,3.308    c-0.104,2.913-0.236,5.825-0.355,8.737c-0.035,0.835-0.072,1.67-0.102,2.505c-0.049,1.476-0.107,2.951-0.125,4.427    C209.043,193.449,209.182,193.818,209.293,194.373z M207.885,241.707c0,0.714-0.004,1.254,0,1.793    c0.01,1.353,0.055,2.706,0.029,4.058c-0.023,1.235-0.145,2.468-0.182,3.703c-0.059,2.032-0.094,4.064-0.117,6.097    c-0.004,0.325,0.102,0.651,0.174,1.078c0.773-0.453,1.375-0.845,2.01-1.168c1.51-0.769,2.877-1.74,4.014-2.987    c1.91-2.097,2.1-5.452,0.551-7.669C212.787,244.356,210.619,242.896,207.885,241.707z M203.787,269.381    c-0.125-0.042-0.25-0.083-0.375-0.125c-0.627,0.958-1.312,1.885-1.863,2.885c-0.398,0.725-0.723,1.524-0.902,2.331    c-0.787,3.523,1.043,6.194,3.006,8.922c0.127-0.221,0.301-0.38,0.299-0.537C203.908,278.364,203.846,273.873,203.787,269.381z     M203.064,226.11c-0.045-1.752-0.213-3.486-0.096-5.2c0.123-1.787-0.225-3.516-0.283-5.339c-1.078,0.854-2.062,1.717-2.92,2.694    c-0.725,0.828-1.051,1.922-1.018,2.994C198.82,223.546,200.586,225.481,203.064,226.11z"/>
		<path fill-rule="evenodd" clip-rule="evenodd" fill="#235183" d="M207.045,330.042c0.252-0.469,0.432-0.763,0.574-1.073    c1.512-3.307,3.016-6.617,4.527-9.923c1.146-2.508,2.311-5.008,3.453-7.519c1.723-3.784,3.443-7.569,5.145-11.364    c1.486-3.312,2.928-6.644,4.416-9.955c1.16-2.585,2.371-5.147,3.543-7.728c2.018-4.44,4.029-8.884,6.033-13.332    c1.297-2.881,2.582-5.768,3.855-8.66c0.674-1.531,1.387-3.053,1.938-4.628c0.602-1.713,0.734-3.499,0.518-5.326    c-0.324-2.723-2.545-3.827-4.486-3.715c-0.98,0.056-1.309-0.258-1.32-1.222c-0.012-0.94,0.336-1.212,1.357-1.176    c2.029,0.072,4.062,0.097,6.092,0.163c1.879,0.061,3.756,0.185,5.633,0.217c1.635,0.029,3.271-0.043,4.908-0.047    c0.879-0.002,1.756,0.07,2.635,0.063c2.641-0.02,5.279-0.062,7.92-0.091c0.117-0.001,0.234,0.041,0.418,0.074    c0.396,0.73,0.307,1.516,0.113,2.288c-0.168,0.682-0.734,0.759-1.33,0.753c-0.914-0.008-1.832,0.055-2.74-0.014    c-1.543-0.116-2.811,0.584-4.018,1.342c-2.967,1.86-5.096,4.58-7.105,7.364c-0.758,1.051-1.17,2.358-1.709,3.563    c-1.189,2.663-2.348,5.34-3.535,8.004c-1.809,4.049-3.625,8.093-5.447,12.135c-1.297,2.878-2.629,5.74-3.908,8.626    c-1.004,2.267-1.918,4.573-2.93,6.837c-1.367,3.062-2.812,6.089-4.18,9.151c-1.467,3.282-2.873,6.59-4.324,9.878    c-0.531,1.202-1.137,2.37-1.682,3.565c-1.006,2.205-1.988,4.42-2.986,6.627c-1.119,2.474-2.266,4.936-3.361,7.42    c-0.979,2.221-1.902,4.468-2.854,6.702c-0.467,1.102-0.945,2.2-1.406,3.305c-0.191,0.457-0.494,0.711-1.004,0.699    c-0.795-0.017-1.592-0.026-2.389-0.039c-0.996-0.016-1.994-0.04-2.99-0.048c-0.828-0.006-1.656-0.009-2.482,0.012    c-1.354,0.034-2.709,0.071-4.062,0.142c-0.549,0.028-0.926-0.104-1.109-0.666c-1.062-3.253-2.934-6.118-4.422-9.167    c-1.086-2.224-2.293-4.39-3.426-6.592c-1.936-3.763-3.846-7.538-5.789-11.297c-0.621-1.205-1.338-2.363-1.959-3.568    c-0.639-1.24-1.189-2.526-1.824-3.768c-1.219-2.381-2.488-4.737-3.701-7.121c-1.195-2.344-2.332-4.717-3.523-7.062    c-0.812-1.601-1.689-3.168-2.514-4.764c-0.33-0.638-0.562-1.325-0.889-1.965c-1.414-2.773-2.85-5.536-4.275-8.303    c-2.139-4.155-4.258-8.32-6.42-12.462c-1.238-2.373-2.555-4.705-3.816-7.065c-0.561-1.052-0.994-2.183-1.633-3.182    c-0.854-1.334-1.6-2.767-2.891-3.779c-2.275-1.781-4.539-3.573-7.668-3.459c-0.15,0.006-0.301-0.08-0.594-0.162    c0-0.931-0.055-1.876,0.023-2.811c0.043-0.526,0.465-0.777,1.041-0.77c2.557,0.03,5.115,0.041,7.674,0.047    c2.795,0.007,5.59,0,8.385,0c3.637,0,7.271,0.014,10.908-0.005c2.154-0.011,4.311-0.066,6.465-0.12    c1.154-0.028,1.295,0.08,1.389,1.229c0.152,1.879,0.154,1.854-1.686,1.69c-0.502-0.045-1.029,0.098-1.537,0.193    c-1.494,0.279-2.801,0.864-3.684,2.194c-0.91,1.374-1.549,2.87-1.342,4.509c0.219,1.743,0.758,3.434,1.598,5.005    c1.336,2.507,2.666,5.017,3.996,7.527c1.855,3.5,3.723,6.992,5.553,10.504c1.254,2.408,2.449,4.847,3.682,7.267    c0.924,1.815,1.877,3.615,2.795,5.433c1.098,2.173,2.143,4.372,3.258,6.535c1.229,2.377,2.535,4.713,3.762,7.09    c1.408,2.732,2.76,5.494,4.152,8.234c1.176,2.314,2.379,4.615,3.566,6.924c1.098,2.132,2.172,4.276,3.287,6.399    C205.424,327.175,206.197,328.514,207.045,330.042z"/>
		<path fill-rule="evenodd" clip-rule="evenodd" fill="#235183" d="M377.764,159.958c-0.65-0.153-1.293-0.369-1.951-0.446    c-1.148-0.135-2.307-0.183-3.459-0.273c-0.279-0.021-0.557-0.063-0.834-0.1c-1.578-0.208-3.158-0.419-4.738-0.626    c-2.133-0.28-4.266-0.556-6.398-0.84c-0.465-0.062-0.852-0.243-0.943-0.771c-0.096-0.546,0.303-0.735,0.66-1.016    c1.404-1.105,2.777-2.25,4.158-3.388c1.139-0.94,2.27-1.892,3.408-2.834c1.783-1.476,3.582-2.935,5.344-4.436    c0.295-0.25,0.438-0.679,0.686-1.084c-0.725-0.339-1.16,0.074-1.617,0.218c-3.16,0.993-6.311,2.017-9.465,3.027    c-0.873,0.28-1.742,0.59-2.631,0.812c-0.662,0.165-0.938,0.544-0.938,1.189c0,0.441,0.008,0.882-0.008,1.322    c-0.01,0.278,0.025,0.611-0.113,0.816c-0.178,0.262-0.486,0.538-0.779,0.596c-0.457,0.09-0.57-0.337-0.635-0.703    c-0.16-0.9-0.279-1.809-0.475-2.701c-0.145-0.662-0.373-1.306-0.582-1.952c-0.404-1.251-0.77-2.518-1.248-3.74    c-0.375-0.963-0.836-1.907-1.373-2.791c-0.521-0.861-0.543-1.605,0.016-2.448c1.166-1.759,2.299-3.541,3.412-5.334    c0.65-1.048,1.266-2.121,1.83-3.217c0.135-0.263,0.133-0.79-0.041-0.964c-0.178-0.181-0.695-0.204-0.971-0.083    c-1.385,0.607-2.74,1.284-4.105,1.937c-0.322,0.154-0.637,0.323-0.965,0.461c-0.73,0.307-0.891,0.545-0.842,1.377    c0.033,0.558,0.137,1.116,0.117,1.671c-0.008,0.228-0.238,0.613-0.4,0.631c-0.26,0.03-0.564-0.159-0.818-0.31    c-0.117-0.07-0.176-0.264-0.227-0.414c-0.369-1.095-0.709-2.2-1.104-3.286c-0.203-0.56-0.498-1.086-0.758-1.625    c-0.539-1.117-1.088-2.229-1.617-3.349c-0.1-0.213-0.174-0.458-0.182-0.69c-0.014-0.405,0.199-0.746,0.611-0.746    c0.264,0,0.652,0.163,0.764,0.371c0.299,0.566,0.475,1.223,1.133,1.476c0.299,0.115,0.709,0.172,0.988,0.06    c0.734-0.293,1.42-0.708,2.135-1.051c2.334-1.12,4.666-2.246,7.016-3.336c1.447-0.672,2.93-1.265,4.381-1.925    c1.535-0.698,2.154-1.369,1.66-3.192c-0.041-0.153-0.074-0.313-0.074-0.47c-0.002-0.478,0.307-0.806,0.719-0.806    c0.275,0,0.602,0.285,0.812,0.524c0.133,0.152,0.072,0.461,0.139,0.689c0.33,1.136,0.662,2.272,1.02,3.401    c0.166,0.531,0.391,1.044,0.584,1.567c0.125,0.337,0.182,0.712,0.363,1.014c1.287,2.138,1.65,4.594,2.232,6.943    c0.299,1.212,0,2.625-0.244,3.905c-0.238,1.252-1.391,1.831-2.42,2.34c-1.391,0.688-2.881,0.583-4.32,0.108    c-0.391-0.129-0.703-0.506-1.041-0.783c-0.424-0.35-0.838-0.715-1.248-1.066c-0.779,0.338-1.123,0.927-1.375,1.554    c-0.572,1.418-1.461,2.643-2.258,3.931c-0.727,1.176-1.432,2.374-1.77,3.77c-0.334,1.374,0.342,2.423,0.889,3.507    c0.234,0.461,0.822,0.586,1.387,0.381c0.752-0.273,1.504-0.538,2.264-0.784c2.879-0.933,5.754-1.87,8.641-2.773    c0.875-0.274,1.777-0.467,2.676-0.655c1.789-0.375,2.365-1.108,2.254-2.916c-0.016-0.235-0.018-0.482,0.039-0.707    c0.1-0.398,0.41-0.658,0.797-0.549c0.252,0.071,0.555,0.352,0.623,0.598c0.162,0.57,0.145,1.19,0.293,1.767    c0.395,1.542,0.811,3.08,1.275,4.602c0.221,0.727,0.191,1.281-0.441,1.809c-1.842,1.532-3.645,3.109-5.463,4.667    c-0.029,0.025-0.078,0.033-0.104,0.061c-1.311,1.524-3.08,2.517-4.51,3.899c-0.219,0.213-0.385,0.618-0.35,0.907    c0.021,0.164,0.488,0.354,0.773,0.391c2.451,0.309,4.914,0.54,7.361,0.888c1.611,0.229,3.197,0.625,4.801,0.918    c0.299,0.055,0.625-0.006,0.938-0.033c0.672-0.059,1.021,0.132,1.086,0.783c0.221,2.223,1.109,4.228,1.959,6.248    c0.303,0.718,0.217,1.094-0.309,1.289c-0.506,0.187-0.932-0.06-1.184-0.705c-0.102-0.259-0.135-0.548-0.256-0.794    c-0.359-0.724-0.932-0.931-1.662-0.662c-0.295,0.108-0.609,0.164-0.912,0.248c-1.879,0.519-3.758,1.038-5.635,1.562    c-0.23,0.064-0.447,0.171-0.676,0.243c-2.129,0.671-4.258,1.339-6.389,2.007c-0.453,0.142-0.918,0.257-1.361,0.427    c-0.248,0.095-0.523,0.229-0.684,0.427c-0.443,0.543-0.303,1.207-0.307,1.845c-0.004,0.624-0.283,1.299,0.469,1.708    c0.033,0.018,0.066,0.052,0.082,0.087c0.66,1.538,2.109,1.841,3.5,2.19c2.793,0.702,5.604,1.331,8.391,2.047    c2.283,0.587,4.543,1.266,6.816,1.886c0.615,0.167,1.254,0.254,1.875,0.401c0.479,0.114,0.932,0.283,0.988,0.887    c0.061,0.658-0.367,0.887-0.889,1.101c-1.926,0.792-3.637,1.961-5.371,3.092c-1.234,0.805-2.584,1.441-3.781,2.294    c-1.98,1.411-4.275,2.344-6.057,4.05c-0.221,0.211-0.543,0.322-0.826,0.461c-0.99,0.486-1.711,1.172-1.826,2.343    c-0.02,0.195-0.051,0.441-0.176,0.562c-0.207,0.202-0.492,0.43-0.752,0.439c-0.188,0.007-0.443-0.29-0.568-0.509    c-0.111-0.194-0.133-0.471-0.111-0.704c0.277-2.835-0.512-5.542-0.994-8.284c-0.084-0.478-0.338-0.961,0.271-1.238    c0.443-0.202,0.961,0.197,1.219,0.878c0.641,1.689,0.789,1.748,2.381,0.924c0.178-0.092,0.34-0.223,0.527-0.286    c1.379-0.465,1.6-1.283,1.51-2.768c-0.086-1.392-0.336-2.773-0.502-4.161c-0.117-0.978-0.535-1.478-1.432-1.624    c-0.826-0.134-1.654-0.246-2.482-0.352c-0.535-0.068-0.844,0.181-0.863,0.735c-0.012,0.314,0.086,0.631,0.121,0.948    c0.078,0.69-0.16,1.175-0.635,1.238c-0.639,0.085-0.846-0.381-0.939-0.867c-0.129-0.661-0.148-1.343-0.281-2.004    c-0.393-1.985-0.895-3.953-1.209-5.95c-0.336-2.135-0.719-4.234-1.656-6.208c-0.287-0.605-0.402-1.294-0.576-1.95    c-0.105-0.394,0.014-0.798,0.412-0.864c0.291-0.049,0.652,0.14,0.934,0.306c0.137,0.081,0.168,0.349,0.234,0.536    c0.426,1.199,0.898,1.503,2.162,1.297c0.508-0.083,0.99-0.318,1.498-0.41c2.838-0.514,5.473-1.722,8.264-2.39    c0.848-0.203,1.686-0.455,2.51-0.739c0.303-0.105,0.551-0.369,0.826-0.56C377.828,160.193,377.797,160.076,377.764,159.958z     M369.631,126.879c-0.254-0.798-0.518-1.753-0.867-2.676c-0.156-0.411-0.504-0.792-1.031-0.575    c-1.018,0.42-2.016,0.89-3.018,1.345c-1.148,0.521-2.141,1.373-3.516,1.402c-0.668,0.014-0.969,0.554-0.771,1.22    c0.215,0.72,0.488,1.445,0.871,2.087c0.729,1.22,2.482,1.907,3.857,1.493c0.869-0.262,1.666-0.755,2.523-1.066    C369.133,129.581,369.377,128.357,369.631,126.879z M378.963,179.97c-2.012-0.869-4.162-0.87-6.219-1.396    c-0.225,1.784,0.189,4.546,0.826,5.404c0.428-0.237,0.879-0.47,1.312-0.732c1.082-0.656,2.145-1.347,3.24-1.98    C378.594,180.993,379.02,180.748,378.963,179.97z"/>
		<path fill-rule="evenodd" clip-rule="evenodd" fill="#235183" d="M132.646,47.646c0.033,0.859,0.393,1.249,1.201,1.459    c0.869,0.227,1.674,0.712,2.498,1.102c0.68,0.32,1.344,0.674,2.02,0.999c0.719,0.344,1.467,0.63,2.162,1.015    c1.15,0.639,2.426,0.767,3.635,0.576c0.691-0.109,1.4-0.762,1.883-1.349c0.48-0.586,0.234-1.323-0.107-2.029    c-0.637-1.323-1.152-2.705-1.719-4.062c-0.795-1.911-1.576-3.827-2.387-5.731c-0.531-1.246-1.111-2.471-1.656-3.71    c-0.506-1.147-0.84-1.334-2.035-1.047c-0.348,0.083-0.67,0.268-1.02,0.346c-0.418,0.095-0.826,0.018-0.984-0.446    c-0.137-0.41-0.061-0.829,0.35-1.046c0.385-0.202,0.809-0.332,1.225-0.466c0.793-0.257,1.607-0.454,2.385-0.748    c1.191-0.45,2.373-0.93,3.531-1.458c0.615-0.279,1.164-0.701,1.758-1.027c0.277-0.151,0.602-0.334,0.889-0.312    c0.314,0.025,0.76,0.2,0.873,0.44c0.104,0.219-0.084,0.675-0.281,0.912c-0.217,0.262-0.582,0.406-0.896,0.58    c-1.129,0.625-1.436,1.31-0.961,2.475c0.902,2.219,1.861,4.415,2.787,6.625c0.85,2.026,1.674,4.062,2.531,6.084    c0.248,0.586,0.527,1.168,0.871,1.703c0.34,0.531,0.805,0.841,1.527,0.636c0.643-0.183,1.328-0.213,1.988-0.346    c0.172-0.034,0.322-0.192,0.475-0.304c0.287-0.208,0.543-0.48,0.857-0.627c1.08-0.506,1.361-0.874,1.168-2.013    c-0.227-1.338-0.551-2.659-0.84-3.986c-0.23-1.054-0.457-2.109-0.707-3.158c-0.314-1.314-0.672-2.619-0.973-3.937    c-0.193-0.854-0.336-1.722-0.469-2.588c-0.248-1.622-1.242-2.554-2.871-2.652c-0.119-0.007-0.24-0.007-0.359-0.012    c-0.459-0.017-0.779-0.229-0.824-0.701c-0.045-0.459,0.213-0.766,0.645-0.89c0.344-0.099,0.703-0.209,1.055-0.206    c1.309,0.011,2.52-0.401,3.705-0.869c0.67-0.264,1.16-0.125,1.789,0.188c1.879,0.939,3.221,2.547,4.893,3.733    c0.52,0.369,1.043,0.734,1.564,1.1c0.131,0.091,0.285,0.158,0.396,0.268c1.406,1.403,3.08,2.471,4.625,3.701    c0.461,0.368,0.871,0.802,1.391,1.289c0.377-0.94,0.244-1.833-0.012-2.536c-0.865-2.372-1.125-4.892-1.939-7.271    c-0.402-1.18-0.766-1.473-2.066-1.505c-0.459-0.011-0.939-0.157-1.361-0.351c-0.188-0.086-0.34-0.444-0.338-0.677    c0.002-0.165,0.27-0.427,0.457-0.471c0.971-0.229,1.953-0.399,2.932-0.594c0.615-0.123,1.227-0.256,1.842-0.38    c0.506-0.103,1.012-0.219,1.521-0.292c0.355-0.05,0.689,0.105,0.688,0.487c-0.002,0.281-0.174,0.579-0.328,0.833    c-0.066,0.108-0.281,0.129-0.43,0.185c-1.143,0.428-1.24,0.526-1.092,1.732c0.129,1.066,0.332,2.125,0.541,3.179    c0.463,2.35,0.895,4.708,1.439,7.039c0.555,2.372,1.213,4.721,1.867,7.068c0.164,0.589,0.484,1.198-0.09,1.649    c-0.604,0.474-1.168-0.039-1.615-0.379c-0.947-0.718-1.809-1.545-2.732-2.296c-0.768-0.625-1.572-1.206-2.361-1.805    c-0.412-0.313-0.83-0.618-1.238-0.936c-1.537-1.198-3.055-2.422-4.611-3.592c-0.787-0.591-1.672-1.05-2.463-1.638    c-0.764-0.569-1.459-1.231-2.193-1.843c-0.17-0.142-0.371-0.246-0.764-0.501c0.141,0.871,0.189,1.533,0.357,2.164    c0.607,2.273,1.25,4.532,1.643,6.862c0.234,1.401,0.744,2.76,1.176,4.124c0.252,0.796,0.779,1.244,1.693,1.243    c0.502,0,1.023,0.18,1.494,0.379c0.195,0.083,0.396,0.438,0.379,0.649c-0.018,0.188-0.326,0.362-0.527,0.514    c-0.088,0.066-0.238,0.108-0.344,0.084c-1.523-0.344-2.861,0.523-4.311,0.649c-0.744,0.065-1.34,0.786-2.168,0.488    c-0.049-0.018-0.154,0.05-0.199,0.106c-1.082,1.393-2.82,1.427-4.283,1.938c-1.49,0.521-2.859,1.213-4.203,1.988    c-0.77,0.444-1.439,0.987-2.438,0.56c-0.271-0.117-0.744,0.162-1.096,0.32c-0.945,0.426-1.885,0.867-2.807,1.339    c-0.383,0.196-0.723,0.479-1.07,0.739c-0.514,0.387-1.115,0.495-1.52,0.033c-0.566-0.647-1.342-0.83-2.033-1.204    c-1.432-0.772-2.85-1.57-4.291-2.324c-0.885-0.462-1.791-0.881-2.707-1.279c-0.223-0.097-0.648-0.144-0.744-0.023    c-0.166,0.205-0.223,0.571-0.184,0.85c0.043,0.302,0.238,0.585,0.383,0.869c0.545,1.069,1.049,2.164,1.666,3.189    c0.342,0.565,0.842,1.053,1.338,1.501c0.584,0.527,1.264,0.683,1.967,0.163c0.064-0.047,0.141-0.078,0.213-0.11    c0.391-0.178,0.781-0.271,1.062,0.163c0.283,0.436,0.025,0.792-0.289,1.042c-0.369,0.294-0.777,0.622-1.217,0.731    c-2.482,0.613-4.488,2.046-6.449,3.58c-0.277,0.217-0.604,0.477-0.924,0.501c-0.297,0.023-0.709-0.169-0.893-0.406    c-0.129-0.167-0.047-0.616,0.094-0.848c0.199-0.334,0.535-0.588,0.816-0.873c0.58-0.585,0.713-1.283,0.311-1.977    c-1.619-2.793-2.697-5.885-4.689-8.472c-0.193-0.251-0.369-0.537-0.469-0.834c-0.529-1.572-1.561-2.852-2.436-4.221    c-0.52-0.813-0.764-0.87-1.697-0.662c-0.426,0.095-0.865,0.195-1.297,0.182c-0.215-0.007-0.564-0.231-0.602-0.411    c-0.057-0.263,0.094-0.581,0.197-0.86c0.031-0.088,0.186-0.168,0.295-0.188c1.773-0.309,3.115-1.556,4.746-2.18    c0.625-0.239,1.184-0.652,1.777-0.976c1.26-0.684,2.521-1.367,3.789-2.035c0.244-0.128,0.543-0.292,0.785-0.252    c0.986,0.163,1.871-0.248,2.805-0.376c2.9-0.401,4.834,0.957,5.549,3.799C135.084,44.674,134.096,46.192,132.646,47.646z     M126.941,50.559c0.857-0.606,1.627-1.164,2.41-1.702c0.711-0.488,0.939-1.154,0.781-1.978c-0.143-0.744-0.279-1.489-0.441-2.228    c-0.279-1.278-1.131-2.188-2.074-2.992c-0.594-0.504-1.34-0.723-2.131-0.439c-0.711,0.255-1.434,0.498-2.111,0.825    c-0.967,0.465-1.053,0.995-0.541,1.919c0.771,1.391,1.457,2.828,2.219,4.225C125.533,49.073,125.771,50.169,126.941,50.559z"/>
		<path fill-rule="evenodd" clip-rule="evenodd" fill="#235183" d="M223.428,40.379c0.553-1.118,0.811-2.141,0.898-3.236    c0.223-2.747,0.518-5.487,0.768-8.232c0.188-2.063,0.424-4.124,0.182-6.205c-0.111-0.952-0.271-1.221-1.23-1.509    c-0.268-0.081-0.539-0.153-0.803-0.249c-0.398-0.145-0.623-0.477-0.438-0.838c0.104-0.205,0.502-0.366,0.766-0.36    c0.594,0.013,1.186,0.141,1.779,0.224c1.578,0.22,3.156,0.444,4.736,0.66c0.156,0.021,0.336,0.044,0.475-0.009    c0.928-0.354,1.807,0.018,2.701,0.152c0.445,0.067,0.803,0.218,0.744,0.738c-0.055,0.502-0.385,0.782-0.887,0.814    c-0.195,0.012-0.395-0.062-0.592-0.078c-0.979-0.077-1.76,0.611-1.857,1.599c-0.178,1.788-0.404,3.572-0.551,5.363    c-0.275,3.379-0.549,6.759-0.746,10.144c-0.09,1.54,0.174,1.74,1.721,2c0.309,0.052,0.639,0.149,0.889,0.325    c1.182,0.83,2.41,0.643,3.215-0.538c1.506-2.208,3.004-4.421,4.504-6.634c1.143-1.685,2.279-3.375,3.426-5.057    c0.781-1.149,1.598-2.275,2.359-3.438c0.301-0.461,0.455-1.016,0.744-1.487c0.17-0.278,0.461-0.646,0.719-0.662    c0.27-0.018,0.666,0.276,0.822,0.542c0.234,0.399,0.357,0.883,0.441,1.347c0.352,1.966,0.684,3.936,0.996,5.908    c0.176,1.101,0.246,2.22,0.455,3.313c0.623,3.258,1.264,6.514,1.965,9.757c0.119,0.547,0.543,1.04,0.875,1.526    c0.199,0.292,0.547,0.49,0.721,0.791c0.123,0.21,0.168,0.589,0.055,0.775c-0.105,0.17-0.463,0.199-0.717,0.259    c-0.109,0.026-0.24-0.014-0.355-0.044c-1.582-0.407-3.154-0.861-4.75-1.211c-0.852-0.187-1.742-0.193-2.615-0.289    c-0.316-0.035-0.639-0.067-0.947-0.146c-0.422-0.107-0.801-0.381-0.648-0.835c0.088-0.259,0.479-0.504,0.777-0.582    c0.373-0.097,0.795-0.011,1.195-0.012c0.744,0,1.07-0.223,1.049-0.966c-0.027-1.072-0.168-2.144-0.312-3.209    c-0.062-0.473-0.365-0.729-0.898-0.794c-1.666-0.203-3.316-0.476-4.904-1.067c-0.965-0.358-1.24-0.197-1.779,0.649    c-0.385,0.605-0.83,1.172-1.205,1.783c-0.615,1-0.221,1.867,0.945,2.137c0.154,0.036,0.389-0.006,0.457,0.085    c0.199,0.264,0.451,0.579,0.447,0.872c-0.002,0.196-0.375,0.453-0.633,0.561c-0.191,0.08-0.471-0.014-0.699-0.072    c-1.27-0.321-2.533-0.669-3.805-0.979c-0.697-0.17-1.277-0.467-1.529-1.065c-2.531-0.297-4.984-0.618-7.443-0.859    c-1.42-0.139-2.854-0.147-4.281-0.218c-1.592-0.079-3.186-0.19-4.779-0.235c-1.078-0.03-1.906-0.497-2.264-1.463    c-0.527-1.427-1.588-2.49-2.328-3.764c-0.438-0.752-0.881-1.5-1.295-2.265c-0.516-0.954-1.107-1.836-1.979-2.44    c-0.588,0.156-0.594,0.562-0.633,0.968c-0.088,0.955-0.279,1.909-0.273,2.862c0.008,1.108,0.168,2.217,0.291,3.322    c0.059,0.533,0.453,0.826,0.908,1.033c0.145,0.065,0.307,0.094,0.457,0.144c0.812,0.268,1.148,0.583,0.971,0.968    c-0.277,0.603-0.848,0.536-1.359,0.454c-2.545-0.407-5.076-0.476-7.605,0.131c-0.301,0.072-0.643,0.046-0.951-0.011    c-0.395-0.074-0.684-0.36-0.576-0.766c0.066-0.253,0.348-0.46,0.561-0.659c0.074-0.07,0.229-0.058,0.346-0.077    c1.336-0.215,1.418-0.253,1.697-1.574c0.322-1.524,0.545-3.052,0.314-4.632c-0.137-0.942-0.049-1.917-0.062-2.878    c-0.039-2.721-0.055-5.443-0.125-8.164c-0.047-1.758-0.383-2.053-2.135-2.115c-0.08-0.003-0.18,0.028-0.236-0.009    c-0.211-0.135-0.539-0.266-0.576-0.448c-0.043-0.208,0.123-0.615,0.297-0.681c0.471-0.181,0.992-0.289,1.498-0.311    c0.555-0.024,1.135,0.001,1.668,0.144c1.201,0.323,2.469-0.194,3.648,0.333c0.166,0.075,0.398,0.041,0.596,0.012    c1.748-0.261,3.52-0.224,5.238,0.045c1.736,0.272,3.471,0.603,4.793,2.113c1,1.142,1.521,2.264,1.451,3.767    c-0.092,1.995-1.467,3.912-3.406,4.556c-0.781,0.259-1.037,0.755-0.656,1.446c0.482,0.869,1.029,1.702,1.562,2.541    c0.447,0.703,0.912,1.396,1.377,2.086c0.736,1.091,1.496,2.167,2.217,3.268c0.385,0.585,0.854,0.903,1.586,0.866    C221.699,40.346,222.541,40.379,223.428,40.379z M207.354,25.485c0,1.193-0.049,2.389,0.016,3.579    c0.047,0.852,0.41,1.124,1.25,1.064c0.475-0.034,0.945-0.16,1.414-0.26c1.633-0.351,2.514-1.237,2.812-2.846    c0.094-0.51,0.242-1.037,0.197-1.54c-0.09-0.975-0.045-1.993-0.627-2.869c-1.014-1.527-2.49-1.854-4.184-1.638    c-0.549,0.07-0.883,0.333-0.881,0.931C207.357,23.099,207.354,24.292,207.354,25.485z M244.305,30.861    c-0.422,0.382-0.637,0.514-0.768,0.705c-1.107,1.614-2.207,3.233-3.289,4.864c-0.369,0.556-0.154,0.889,0.572,1.066    c1.193,0.292,2.453,0.256,3.586,0.87c0.572,0.309,1-0.043,1.029-0.723c0.014-0.315-0.053-0.636-0.104-0.95    c-0.16-0.982-0.324-1.963-0.498-2.943C244.68,32.868,244.512,31.988,244.305,30.861z"/>
		<path fill-rule="evenodd" clip-rule="evenodd" fill="#235183" d="M343.467,115.749c0.988-1.06,1.82-1.912,2.6-2.81    c0.455-0.522,0.58-1.069,0.062-1.719c-0.668-0.839-1.225-1.768-1.814-2.668c-0.217-0.33-0.408-0.678-0.58-1.032    c-0.529-1.091-1.215-1.364-2.34-0.935c-0.482,0.185-0.975,0.353-1.473,0.496c-0.824,0.237-1.125,0.607-1.057,1.464    c0.035,0.436,0.184,0.861,0.244,1.296c0.062,0.456-0.143,0.804-0.59,0.914c-0.449,0.111-0.645-0.235-0.773-0.585    c-0.822-2.208-2.141-4.077-3.77-5.769c-0.738-0.765-1.266-1.727-1.959-2.54c-0.957-1.123-1.979-2.19-2.979-3.277    c-0.295-0.322-0.67-0.591-0.891-0.955c-0.139-0.228-0.178-0.681-0.041-0.865c0.143-0.188,0.553-0.2,0.852-0.229    c0.135-0.013,0.291,0.11,0.422,0.195c1.439,0.943,1.975,0.953,3.197-0.036c1.207-0.978,2.393-1.98,3.578-2.986    c0.209-0.178,0.381-0.409,0.543-0.636c0.5-0.703,0.451-1.192-0.115-1.815c-0.912-1-1.801-2.021-2.713-3.02    c-0.24-0.264-0.52-0.501-0.807-0.713c-0.512-0.375-1.035-0.392-1.537,0.034c-0.092,0.078-0.178,0.162-0.268,0.242    c-1.281,1.13-2.578,2.245-3.84,3.394c-0.791,0.718-0.873,1.284-0.428,2.255c0.148,0.328,0.4,0.638,0.443,0.977    c0.041,0.308-0.039,0.744-0.242,0.946c-0.324,0.323-0.75,0.156-1.062-0.152c-0.141-0.137-0.23-0.327-0.352-0.485    c-0.604-0.789-1.193-1.59-1.824-2.358c-1.164-1.418-2.32-2.848-3.822-3.944c-0.334-0.244-0.367-0.625-0.137-0.965    c0.242-0.358,0.6-0.554,1.037-0.38c0.215,0.086,0.391,0.271,0.584,0.41c0.902,0.652,1.527,0.63,2.365-0.102    c1.652-1.443,3.297-2.891,4.943-4.338c1.318-1.158,2.623-2.331,3.959-3.469c0.604-0.516,1.324-0.904,1.895-1.451    c1.26-1.208,1.299-2.121,0.24-3.553c-0.258-0.348-0.461-0.698-0.111-1.066c0.342-0.359,0.742-0.237,1.08,0.03    c0.281,0.223,0.557,0.468,0.775,0.75c0.703,0.907,1.332,1.877,2.08,2.746c0.881,1.023,1.855,1.965,2.787,2.945    c0.355,0.372,0.762,0.715,1.027,1.143c0.133,0.212,0.113,0.682-0.041,0.861c-0.145,0.169-0.602,0.226-0.84,0.129    c-0.436-0.175-0.818-0.489-1.209-0.765c-0.5-0.353-0.99-0.449-1.566-0.143c-0.748,0.398-1.449,0.813-1.91,1.574    c-0.199,0.326-0.539,0.577-0.85,0.819c-0.469,0.369-0.986,0.675-1.445,1.055c-0.578,0.477-0.66,0.93-0.328,1.584    c0.162,0.32,0.334,0.651,0.57,0.916c1.244,1.394,2.51,2.769,3.859,4.25c0.258-0.202,0.596-0.364,0.783-0.63    c0.961-1.357,2.262-2.335,3.555-3.334c0.301-0.233,0.525-0.601,0.701-0.949c0.271-0.536,0.24-1.079-0.158-1.574    c-0.174-0.216-0.334-0.45-0.457-0.697c-0.201-0.4-0.176-0.803,0.221-1.063c0.389-0.254,0.807-0.155,1.086,0.177    c0.279,0.331,0.455,0.748,0.697,1.111c0.33,0.494,0.65,1.001,1.033,1.453c0.541,0.637,1.193,1.185,1.691,1.849    c0.658,0.876,1.396,1.642,2.307,2.247c0.166,0.11,0.324,0.241,0.453,0.391c0.375,0.442,0.385,0.961,0.014,1.29    c-0.418,0.369-0.793,0.246-1.148-0.131c-0.189-0.202-0.414-0.379-0.643-0.538c-0.785-0.544-1.412-0.551-2.221-0.015    c-0.266,0.176-0.5,0.399-0.744,0.604c-0.936,0.78-1.885,1.542-2.799,2.347c-1.285,1.133-2.539,2.3-3.811,3.449    c-1.152,1.041-2.295,2.095-3.469,3.11c-1.656,1.429-1.623,2.762,0.137,4.105c0.285,0.217,0.592,0.412,0.852,0.656    c0.373,0.351,0.752,0.312,1.217,0.206c1.318-0.303,2.654-0.533,3.98-0.805c1.051-0.216,2.102-0.44,3.146-0.683    c1.707-0.397,3.398-1.041,5.121-1.141c1.189-0.069,2.32-0.407,3.51-0.458c1.211-0.051,2.406-0.503,3.607-0.786    c0.154-0.036,0.322-0.18,0.445-0.144c0.322,0.094,0.723,0.186,0.898,0.422c0.131,0.176,0.055,0.637-0.092,0.866    c-0.451,0.704-1.01,1.337-1.475,2.034c-1.369,2.06-2.689,4.153-4.072,6.205c-1.404,2.085-2.859,4.136-4.291,6.203    c-0.545,0.784-1.104,1.557-1.621,2.358c-0.457,0.705-0.521,1.491-0.383,2.313c0.145,0.866-0.023,1.301-0.486,1.411    c-0.488,0.117-0.84-0.333-1.164-1.117c-0.746-1.803-1.523-3.6-2.811-5.112c-0.488-0.575-0.957-1.169-1.428-1.76    c-0.098-0.124-0.201-0.264-0.24-0.413c-0.1-0.397-0.158-0.823,0.275-1.066c0.398-0.222,0.791-0.114,1.088,0.214    c0.184,0.205,0.291,0.476,0.455,0.702C342.859,115,343.078,115.259,343.467,115.749z M351.5,104.277    c-0.59,0.108-0.898,0.153-1.203,0.222c-1.43,0.324-2.855,0.674-4.291,0.976c-1.088,0.229-1.271,0.583-0.715,1.53    c0.525,0.89,1.031,1.791,1.578,2.665c0.219,0.348,0.527,0.64,0.766,0.921c0.213-0.089,0.314-0.098,0.352-0.151    c1.1-1.61,2.213-3.212,3.271-4.849C351.443,105.302,351.4,104.864,351.5,104.277z"/>
		<path fill-rule="evenodd" clip-rule="evenodd" fill="#235183" d="M195.525,380.492c0.195-1.077,0.408-1.849,0.461-2.632    c0.121-1.75,0.133-3.507,0.244-5.257c0.055-0.867,0.246-1.725,0.346-2.591c0.168-1.489-0.604-2.379-2.131-2.536    c-0.33-0.034-0.65-0.174-0.965-0.263c0.018-0.871,0.477-1.143,1.096-1.118c0.834,0.033,1.662,0.169,2.492,0.242    c1.115,0.097,2.23,0.173,3.344,0.261c0.195,0.016,0.391,0.051,0.57,0.075c0.297,0.951,0.145,1.238-0.682,1.334    c-1.643,0.192-1.754,0.468-1.992,2.039c-0.326,2.139-0.32,4.287-0.482,6.429c-0.088,1.152-0.352,2.291-0.473,3.441    c-0.109,1.026-0.184,2.061-0.188,3.092c-0.006,1.947-0.621,3.87-0.184,5.839c0.111,0.495,0.027,1.064-0.562,1.328    c-0.512,0.229-0.957,0.067-1.303-0.487c-1.037-1.658-2.059-3.326-3.1-4.98c-0.361-0.573-0.768-1.118-1.154-1.674    c-1.002-1.44-2.025-2.867-3.002-4.324c-1.621-2.42-3.211-4.86-4.822-7.287c-0.1-0.15-0.271-0.251-0.594-0.538    c-0.158,0.944-0.332,1.702-0.404,2.47c-0.293,3.127-0.576,6.256-0.814,9.389c-0.068,0.908-0.002,1.832,0.057,2.745    c0.082,1.271,0.371,1.563,1.607,1.806c0.232,0.045,0.516,0.079,0.668,0.227c0.209,0.201,0.475,0.547,0.422,0.76    c-0.066,0.281-0.379,0.604-0.66,0.704c-0.309,0.109-0.709,0.021-1.059-0.041c-1.732-0.308-3.471-0.503-5.236-0.376    c-0.195,0.014-0.441,0.039-0.584-0.058c-0.213-0.145-0.471-0.382-0.494-0.603c-0.021-0.216,0.188-0.498,0.365-0.68    c0.121-0.125,0.363-0.146,0.557-0.182c2.021-0.368,2.338-0.725,2.488-2.698c0.137-1.788,0.32-3.572,0.461-5.359    c0.137-1.711,0.221-3.427,0.377-5.137c0.113-1.269,0.354-2.527,0.447-3.797c0.082-1.134-0.117-2.235-0.896-3.14    c-0.178-0.207-0.404-0.374-0.619-0.543c-0.436-0.341-0.902-0.644-1.312-1.011c-0.992-0.888-2.574-0.504-3.021,0.783    c-0.234,0.679-0.402,1.384-0.568,2.085c-0.633,2.682-1.252,5.367-1.879,8.051c-0.1,0.428-0.242,0.85-0.305,1.283    c-0.148,1.001-0.408,1.948-0.996,2.798c-0.225,0.323-0.363,0.714-0.492,1.091c-0.639,1.875-2.102,2.724-3.838,3.47    c-2.051,0.882-3.926,0.265-5.846-0.204c-1.078-0.263-2.162-0.569-3.09-1.255c-1.352-1-2.531-2.146-3.332-3.643    c-0.092-0.172-0.205-0.369-0.201-0.552c0.023-1.315,0.004-2.637,0.137-3.943c0.26-2.59,1.107-5.055,1.73-7.568    c0.316-1.275,0.666-2.544,0.916-3.833c0.15-0.778,0.193-1.589,0.182-2.383c-0.014-0.866-0.387-1.232-1.256-1.455    c-0.971-0.249-1.248-0.532-1.09-1.108c0.158-0.575,0.758-0.793,1.609-0.576c0.232,0.059,0.502,0.093,0.676,0.235    c0.725,0.587,1.625,0.614,2.467,0.824c1.461,0.365,2.926,0.72,4.395,1.047c0.342,0.075,0.713,0.009,1.068,0.027    c0.275,0.014,0.564,0.013,0.82,0.099c0.453,0.152,0.803,0.463,0.641,0.987c-0.146,0.467-0.516,0.698-1.035,0.581    c-0.156-0.036-0.309-0.087-0.467-0.115c-1.199-0.213-2.033,0.208-2.484,1.353c-0.291,0.742-0.518,1.517-0.701,2.293    c-0.648,2.757-1.305,5.514-1.885,8.286c-0.381,1.833-0.639,3.679-0.598,5.578c0.031,1.42,0.604,2.425,1.783,3.001    c2.438,1.19,4.23,1.559,6.484-0.166c1.059-0.811,1.721-2.001,2.098-3.276c0.609-2.069,1.164-4.158,1.668-6.256    c0.502-2.095,0.959-4.203,1.352-6.321c0.324-1.747-0.119-2.444-1.75-3.013c-0.479-0.167-0.949-0.308-0.865-0.94    c0.066-0.511,0.688-0.856,1.344-0.689c0.535,0.137,1.053,0.373,1.555,0.616c1.178,0.571,2.414,0.839,3.715,0.786    c0.688-0.028,1.236,0.077,1.564,0.805c0.361,0.804,1.195,0.905,1.938,0.988c0.75,0.083,1.518,0.019,2.277,0.002    c0.713-0.015,1.432-0.108,2.141-0.055c0.297,0.022,0.719,0.264,0.838,0.52c0.951,2.049,2.41,3.756,3.67,5.597    c0.381,0.559,0.682,1.174,1.064,1.733c1.145,1.674,2.318,3.329,3.469,4.999c0.271,0.393,0.48,0.826,0.754,1.217    C194.746,379.542,195.066,379.912,195.525,380.492z"/>
		<path fill-rule="evenodd" clip-rule="evenodd" fill="#235183" d="M136.693,364.488c-0.117,0.247-0.246,0.481-0.346,0.726    c-0.631,1.548-1.279,3.09-1.869,4.654c-0.25,0.667-0.398,1.376-0.543,2.077c-0.105,0.512,0.098,0.948,0.531,1.25    c0.395,0.274,0.816,0.509,1.197,0.799c0.451,0.342,0.508,0.83,0.191,1.255c-0.342,0.459-0.826,0.476-1.326,0.098    c-0.41-0.31-0.826-0.646-1.293-0.84c-1.355-0.562-2.729-1.077-4.107-1.577c-1.197-0.434-2.41-0.828-3.617-1.229    c-0.467-0.155-0.822-0.411-0.686-0.949c0.139-0.54,0.611-0.584,1.068-0.522c0.23,0.031,0.453,0.146,0.672,0.242    c0.949,0.419,1.486,0.369,1.908-0.488c0.625-1.276,1.559-2.429,1.727-3.911c0.018-0.157,0.059-0.317,0.115-0.465    c0.744-1.931,1.51-3.853,2.234-5.791c0.596-1.595,1.145-3.208,1.719-4.812c0.16-0.45,0.338-0.895,0.508-1.341    c0.5-1.32,0.111-2.24-1.186-2.805c-0.146-0.063-0.312-0.094-0.441-0.183c-0.377-0.26-0.498-0.609-0.301-1.043    c0.176-0.389,0.512-0.558,0.883-0.422c0.635,0.233,1.244,0.537,1.854,0.836c1.711,0.841,3.373,1.715,5.271,2.195    c3.088,0.78,5.875,2.273,8.123,4.612c1.494,1.556,1.727,3.771,1.027,5.775c-0.59,1.693-1.998,2.406-3.242,3.36    c-0.156,0.12-0.457,0.088-0.686,0.07c-0.477-0.038-0.949-0.135-1.428-0.171c-0.936-0.072-1.486,0.567-1.297,1.509    c0.07,0.352,0.213,0.688,0.299,1.037c0.691,2.821,1.393,5.641,2.053,8.469c0.168,0.723,0.338,1.395,1.027,1.809    c0.41,0.245,0.537,0.627,0.25,1.018c-0.279,0.382-0.646,0.32-1.068,0.128c-1.486-0.679-2.984-1.339-4.498-1.955    c-1.045-0.425-1.529-1.19-1.693-2.269c-0.227-1.496-0.492-2.987-0.787-4.471c-0.328-1.642-0.697-3.275-1.07-4.908    C137.709,365.56,137.562,364.832,136.693,364.488z M145.223,358.162c-0.102-2.223-2.068-4.103-4.248-3.938    c-0.598,0.045-0.895,0.453-1.08,0.984c-0.719,2.061-1.451,4.117-2.166,6.18c-0.104,0.298-0.174,0.619-0.189,0.933    c-0.055,1.006,0.285,1.379,1.281,1.494c0.475,0.055,0.951,0.106,1.418,0.207c1.318,0.284,2.383-0.113,3.084-1.239    c0.4-0.643,0.801-1.303,1.074-2.005C144.77,359.819,145.021,358.813,145.223,358.162z"/>
		<path fill-rule="evenodd" clip-rule="evenodd" fill="#235183" d="M117.709,365.079c-1.344,0.049-2.451-0.624-3.646-0.91    c-1.562-0.373-2.871-1.191-4.195-2.003c-0.779-0.479-1.463-1.12-2.258-1.564c-1.281-0.716-2.617-1.33-3.93-1.99    c-0.283-0.143-0.588-0.262-0.838-0.451c-0.393-0.295-0.551-0.723-0.293-1.165c0.23-0.395,0.643-0.434,1.062-0.298    c0.113,0.037,0.234,0.074,0.328,0.144c0.771,0.575,1.52,0.226,2.088-0.242c0.6-0.495,1.102-1.164,1.494-1.845    c0.834-1.445,1.561-2.952,2.35-4.424c0.617-1.154,1.242-2.306,1.904-3.436c0.318-0.544,0.766-1.012,1.086-1.555    c0.668-1.133,1.297-2.289,1.93-3.442c0.627-1.144,0.535-1.667-0.455-2.495c-0.242-0.203-0.609-0.287-0.789-0.524    c-0.189-0.252-0.369-0.666-0.291-0.932c0.129-0.434,0.568-0.529,0.996-0.34c0.217,0.095,0.43,0.222,0.613,0.373    c2.262,1.871,4.896,3.117,7.432,4.543c1.967,1.106,3.951,2.314,5.1,4.406c0.24,0.437,0.463,0.941,0.488,1.425    c0.047,0.866,0.053,1.766-0.135,2.605c-0.266,1.19-0.791,2.189-2.205,2.534c-1.16,0.283-2.232,0.906-3.469,0.32    c-0.16-0.076-0.568,0.027-0.621,0.149c-0.086,0.207-0.076,0.587,0.062,0.732c1.004,1.051,1.348,2.443,1.969,3.688    c0.357,0.718,0.396,1.446,0.074,2.202c-0.297,0.696-0.441,1.478-0.836,2.107c-0.568,0.906-1.244,1.71-2.512,1.779    C119.369,364.519,118.543,364.866,117.709,365.079z M115.307,351.457c-0.695,1.216-1.395,2.365-2.018,3.554    c-0.719,1.371-1.395,2.766-2.037,4.175c-0.289,0.636-0.379,1.382,0.182,1.905c1.48,1.382,3.158,2.166,5.051,0.424    c0.146-0.134,0.27-0.294,0.404-0.439c0.99-1.059,1.33-2.412,1.748-3.744c0.518-1.646,0.014-2.991-1.135-4.126    C116.865,352.577,116.098,352.079,115.307,351.457z M116.193,350.351c0.818,0.771,1.84,1.156,2.836,1.509    c0.572,0.203,1.301,0.13,1.791-0.378c0.715-0.741,1.475-1.466,2.045-2.313c0.67-0.997,0.633-2.235,0.523-3.365    c-0.092-0.943-0.865-1.554-1.721-2.007c-1.168-0.619-1.658-0.47-2.309,0.689c-0.58,1.037-1.279,2.009-1.846,3.053    C117.029,348.433,116.312,349.232,116.193,350.351z"/>
		<path fill-rule="evenodd" clip-rule="evenodd" fill="#235183" d="M36.838,233.83c-2.293,0.278-4.584,0.554-6.877,0.837    c-0.395,0.049-0.783,0.151-1.178,0.188c-1.098,0.104-1.766,0.662-1.996,1.732c-0.074,0.35-0.021,0.746-0.164,1.057    c-0.111,0.242-0.41,0.482-0.672,0.55c-0.406,0.105-0.691-0.183-0.766-0.577c-0.059-0.308-0.061-0.64-0.018-0.952    c0.139-0.992,0.096-1.943-0.102-2.948c-0.434-2.188-0.803-4.405-0.951-6.626c-0.105-1.576,0.115-3.19,0.334-4.767    c0.17-1.241,0.965-2.329,1.969-2.896c1.459-0.824,3.125-1.137,4.832-0.446c1.195,0.483,1.979,1.287,2.4,2.485    c0.078,0.223,0.188,0.446,0.328,0.635c0.523,0.698,0.963,0.732,1.527,0.068c1.037-1.22,2.334-2.138,3.557-3.146    c0.98-0.808,1.971-1.61,2.898-2.477c0.328-0.305,0.496-0.788,0.717-1.2c0.072-0.136,0.035-0.348,0.129-0.453    c0.223-0.25,0.475-0.606,0.752-0.646c0.434-0.061,0.551,0.37,0.584,0.75c0.117,1.386,0.195,2.776,0.355,4.157    c0.166,1.428-0.58,2.346-1.611,3.13c-1.33,1.01-2.705,1.963-3.99,3.026c-0.793,0.655-1.445,1.471-2.365,1.991    c-0.215,0.121-0.352,0.434-0.451,0.688c-0.258,0.651,0.143,1.268,0.773,1.057c1.594-0.532,3.254-0.302,4.855-0.604    c0.58-0.11,1.137-0.376,1.68-0.626c0.602-0.276,0.826-0.845,0.943-1.452c0.047-0.233,0.027-0.478,0.037-0.718    c0.02-0.499,0.328-0.729,0.777-0.727c0.426,0.002,0.637,0.293,0.646,0.71c0.014,0.44,0.037,0.882,0.004,1.32    c-0.172,2.253,0.074,4.456,0.754,6.612c0.121,0.381,0.277,0.771,0.287,1.16c0.006,0.266-0.145,0.667-0.35,0.777    c-0.352,0.189-0.793,0.14-1.061-0.261c-0.107-0.163-0.166-0.361-0.234-0.547c-0.459-1.216-1.084-1.696-2.344-1.551    c-1.496,0.173-2.977,0.486-4.469,0.714c-0.504,0.077-1.02,0.079-1.529,0.116C36.848,233.924,36.842,233.876,36.838,233.83z     M32.123,229.58c0.479-0.103,1.188-0.208,1.859-0.422c0.244-0.077,0.553-0.402,0.578-0.64c0.283-2.735-1.42-5.274-4.559-4.723    c-0.744,0.13-1.494,0.23-2.23,0.392c-0.256,0.056-0.492,0.241-0.717,0.397c-1.492,1.039-1.51,2.532-1.186,4.082    c0.232,1.103,0.41,1.22,1.537,1.283c0.289,0.017,0.588-0.118,0.881-0.192c0.381-0.097,0.76-0.284,1.141-0.29    C30.248,229.452,31.07,229.529,32.123,229.58z"/>
		<path fill-rule="evenodd" clip-rule="evenodd" fill="#235183" d="M222.734,365.866c0,0.519,0.045,0.917-0.008,1.304    c-0.176,1.303,0.195,2.527,0.465,3.771c0.084,0.382,0.141,0.797,0.074,1.173c-0.037,0.21-0.326,0.474-0.545,0.525    c-0.215,0.05-0.564-0.07-0.715-0.24c-0.227-0.26-0.354-0.618-0.484-0.949c-0.25-0.629-0.482-1.266-0.705-1.906    c-0.479-1.367-1.584-1.86-2.883-1.968c-1.584-0.131-3.176-0.167-4.764-0.232c-0.842-0.034-1.293,0.302-1.338,1.178    c-0.059,1.144,0,2.294,0.027,3.441c0.031,1.316,0.111,2.631,0.109,3.946c0,0.452-0.092,0.878,0.311,1.124    c0.629-0.129,1.199-0.275,1.779-0.358c1.58-0.225,2.076-1.471,2.539-2.711c0.207-0.555,0.238-1.174,0.375-1.757    c0.104-0.444,0.264-0.878,0.85-0.813c0.463,0.051,0.697,0.461,0.662,1.102c-0.104,1.955-0.182,3.911-0.33,5.862    c-0.076,1.024,0.098,1.983,0.418,2.942c0.152,0.45,0.254,0.928,0.299,1.4c0.043,0.449-0.225,0.833-0.664,0.852    c-0.289,0.013-0.691-0.19-0.865-0.428c-0.219-0.302-0.322-0.729-0.361-1.113c-0.225-2.232-1.973-3.872-4.145-3.862    c-0.523,0.002-0.826,0.238-0.904,0.757c-0.006,0.039-0.008,0.08-0.008,0.12c0.047,1.671,0.064,3.344,0.152,5.014    c0.045,0.835,0.229,1.662,0.326,2.495c0.104,0.889,0.266,1.1,1.146,1.27c1.061,0.204,2.107,0.165,3.193,0.066    c1.244-0.112,2.301-0.504,3.344-1.123c1.371-0.815,2.289-1.958,2.748-3.48c0.104-0.342,0.189-0.699,0.355-1.011    c0.23-0.432,0.625-0.633,1.111-0.46c0.467,0.166,0.529,0.581,0.455,0.995c-0.16,0.906-0.375,1.801-0.529,2.708    c-0.127,0.746-0.227,1.499-0.289,2.252c-0.078,0.971-0.506,1.478-1.482,1.52c-0.824,0.035-1.654-0.062-2.482-0.041    c-0.992,0.024-1.982,0.15-2.973,0.16c-1.197,0.012-2.395-0.085-3.592-0.073s-2.396,0.092-3.592,0.162    c-0.793,0.046-1.586,0.117-2.377,0.195c-0.713,0.07-1.422,0.171-2.133,0.244c-0.355,0.037-0.748,0.139-1.061,0.031    c-0.281-0.097-0.646-0.434-0.658-0.68c-0.014-0.256,0.299-0.64,0.566-0.772c0.42-0.208,0.924-0.239,1.385-0.37    c0.84-0.238,1.066-0.489,1.086-1.33c0.027-1.235-0.061-2.475,0.025-3.705c0.143-2.085-0.123-4.143-0.238-6.212    c-0.094-1.666,0.01-3.342-0.035-5.012c-0.025-0.994-0.133-1.989-0.271-2.975c-0.096-0.69-0.488-1.15-1.252-1.247    c-0.43-0.055-0.857-0.201-1.262-0.364c-0.379-0.152-0.762-0.399-0.637-0.886c0.137-0.532,0.605-0.401,0.996-0.375    c1.623,0.111,3.244,0.262,4.869,0.321c0.914,0.033,1.844-0.015,2.748-0.147c3.053-0.446,6.109-0.638,9.189-0.337    C221.371,365.917,221.996,365.866,222.734,365.866z"/>
		<path fill-rule="evenodd" clip-rule="evenodd" fill="#235183" d="M246.465,375.613c0.074-0.425,0.238-0.792,0.18-1.12    c-0.293-1.647-0.674-3.279-0.967-4.927c-0.217-1.214-0.344-2.445-0.525-3.667c-0.047-0.315-0.137-0.624-0.217-0.933    c-0.322-1.214-0.738-1.551-2.008-1.624c-0.32-0.018-0.66,0.047-0.953-0.046c-0.221-0.07-0.535-0.333-0.533-0.506    c0.002-0.263,0.184-0.658,0.398-0.756c0.385-0.175,0.854-0.161,1.283-0.244c1.678-0.323,3.354-0.668,5.037-0.965    c0.256-0.045,0.723,0.055,0.783,0.21c0.09,0.226-0.006,0.661-0.188,0.833c-0.402,0.379-0.9,0.657-1.369,0.96    c-0.682,0.442-0.92,1.018-0.758,1.842c0.371,1.879,0.703,3.766,0.998,5.658c0.307,1.969,0.541,3.948,0.824,5.92    c0.256,1.771,0.496,3.546,0.818,5.305c0.176,0.973,0.535,1.911,0.752,2.878c0.068,0.308,0.055,0.758-0.127,0.969    c-0.289,0.339-0.732,0.204-1.092-0.036c-0.168-0.11-0.35-0.212-0.482-0.357c-2.258-2.479-5.023-4.408-7.363-6.802    c-0.637-0.652-1.424-1.156-2.074-1.795c-0.869-0.851-1.502-1.949-2.723-2.419c-0.23-0.089-0.363-0.416-0.566-0.605    c-0.727-0.676-1.467-1.338-2.197-2.011c-0.289-0.268-0.568-0.548-0.852-0.826c-0.215-0.211-0.426-0.426-0.693-0.693    c-0.586,0.765-0.225,1.5-0.172,2.154c0.121,1.548,0.363,3.088,0.613,4.623c0.26,1.614,0.594,3.216,0.879,4.826    c0.148,0.826,0.275,1.655,0.389,2.486c0.189,1.405,0.838,1.92,2.264,1.788c0.318-0.03,0.639-0.02,0.959-0.028    c0.363-0.01,0.693,0.132,0.674,0.508c-0.014,0.269-0.193,0.633-0.412,0.765c-0.33,0.196-0.752,0.27-1.146,0.318    c-1.863,0.23-3.717,0.485-5.49,1.163c-0.246,0.093-0.777-0.073-0.902-0.282c-0.133-0.225-0.051-0.729,0.131-0.955    c0.264-0.326,0.672-0.579,1.068-0.745c0.885-0.371,1.18-1.02,1.061-1.916c-0.223-1.661-0.439-3.322-0.682-4.979    c-0.201-1.381-0.428-2.758-0.652-4.136c-0.152-0.941-0.35-1.876-0.479-2.821c-0.152-1.103-0.193-2.224-0.396-3.315    c-0.119-0.64-0.379-1.291-0.723-1.844c-0.473-0.757-1.262-1.083-2.154-1.106c-0.383-0.01-0.799-0.058-0.775-0.53    c0.016-0.313,0.188-0.698,0.42-0.898c0.25-0.213,0.666-0.371,0.986-0.338c1.549,0.156,3.016-0.247,4.477-0.619    c0.795-0.203,1.328-0.132,1.865,0.571c0.449,0.588,1.15,0.979,1.707,1.491c0.559,0.512,1.066,1.077,1.615,1.597    c0.346,0.327,0.711,0.642,1.1,0.911c0.916,0.632,1.924,1.15,2.488,2.183c0.037,0.069,0.086,0.147,0.15,0.184    c2.09,1.169,3.426,3.222,5.359,4.572C246.104,375.506,246.148,375.51,246.465,375.613z"/>
		<path fill-rule="evenodd" clip-rule="evenodd" fill="#235183" d="M75.883,89.646c0.137-0.057,0.184-0.063,0.209-0.09    c2.264-2.261,2.002-2.729,0.367-5.355c-0.062-0.099-0.178-0.162-0.258-0.25c-0.496-0.544-0.555-1.127-0.146-1.45    c0.383-0.302,0.988-0.238,1.369,0.266c0.979,1.292,2.283,2.174,3.533,3.164c1.09,0.861,2.068,1.856,3.303,2.546    c0.537,0.301,0.705,0.936,0.414,1.329c-0.365,0.491-0.826,0.356-1.287,0.123c-0.641-0.325-1.268-0.688-1.936-0.944    c-1.254-0.481-3.305,0.303-3.98,1.458c-0.303,0.52-0.174,1.02,0.293,1.245c2.045,0.985,3.41,2.876,5.389,3.955    c0.609,0.331,1.059,0.374,1.479-0.115c0.932-1.083,2.232-1.842,2.822-3.221c0.125-0.292,0.34-0.569,0.377-0.87    c0.197-1.627,0.344-3.26-0.223-4.852c-0.146-0.413-0.375-0.799-0.5-1.218c-0.172-0.585,0.047-1.044,0.5-1.188    c0.467-0.147,0.955,0.055,1.16,0.589c0.559,1.456,1.6,2.568,2.582,3.718c0.805,0.941,0.787,1.191-0.086,2.082    c-0.611,0.622-1.113,1.348-1.674,2.019c-0.846,1.011-1.664,2.048-2.562,3.011c-0.928,0.993-1.938,1.908-2.91,2.86    c-0.17,0.167-0.344,0.335-0.488,0.523c-1.104,1.417-2.197,2.84-3.299,4.258c-0.121,0.157-0.258,0.314-0.42,0.426    c-0.418,0.292-0.848,0.234-1.209-0.093c-0.352-0.32-0.113-0.639,0.057-0.967c0.27-0.521,0.564-1.044,0.727-1.602    c0.223-0.764-0.074-1.44-0.688-1.911c-0.76-0.581-1.547-1.112-2.043-1.967c-0.115-0.197-0.326-0.368-0.531-0.479    c-1.572-0.849-2.793-2.126-4.088-3.315c-0.119-0.108-0.234-0.235-0.375-0.296c-1.303-0.563-2.107-1.685-3.047-2.661    c-0.326-0.339-0.699-0.663-1.109-0.883c-1.486-0.795-1.496-0.777-2.734,0.374c-0.447,0.415-0.928,0.479-1.285,0.173    c-0.418-0.356-0.498-0.988,0.016-1.361c1.473-1.07,2.354-2.687,3.717-3.861c0.676-0.582,1.139-1.411,1.691-2.132    c0.098-0.126,0.135-0.312,0.252-0.405c1.697-1.35,2.721-3.346,4.475-4.649c0.393-0.29,0.688-0.753,0.93-1.19    c0.492-0.882,1.168-0.991,1.719-0.165c0.74,1.111,1.859,1.736,2.932,2.429c0.268,0.173,0.568,0.309,0.797,0.523    c0.371,0.347,0.418,0.777,0.086,1.182c-0.291,0.356-0.648,0.395-1.072,0.182c-0.566-0.284-1.135-0.659-1.738-0.751    c-2.059-0.313-3.869,0.26-5.328,1.796c-0.357,0.377-0.707,0.763-1.049,1.155c-0.773,0.885-0.719,1.867,0.098,2.725    c0.547,0.576,1.008,1.24,1.588,1.778c0.637,0.59,1.359,1.089,2.057,1.609C75.104,89.164,75.482,89.385,75.883,89.646z"/>
		<path fill-rule="evenodd" clip-rule="evenodd" fill="#235183" d="M108.518,62.312c0.307,0.572,0.588,1.223,0.979,1.797    c0.967,1.415,1.998,2.784,2.973,4.193c0.449,0.649,0.777,0.901,1.482,0.595c0.943-0.409,1.818-0.971,2.711-1.489    c0.201-0.117,0.332-0.353,0.527-0.487c1.883-1.287,2.432-3.15,2.352-5.311c-0.025-0.717,0.023-1.44,0.084-2.156    c0.021-0.262,0.121-0.561,0.285-0.757c0.377-0.447,0.906-0.338,1.133,0.198c0.061,0.145,0.109,0.306,0.117,0.462    c0.07,1.64,0.689,3.093,1.463,4.508c0.48,0.879,0.115,1.731-0.811,2.167c-0.457,0.216-0.879,0.511-1.305,0.789    c-0.996,0.65-1.967,1.344-2.984,1.96c-2.076,1.26-4.201,2.444-6.26,3.735c-0.975,0.61-1.84,1.392-2.75,2.102    c-0.125,0.097-0.209,0.247-0.336,0.341c-0.49,0.366-1.016,0.35-1.283-0.026c-0.264-0.37-0.137-0.853,0.33-1.25    c1.334-1.136,1.387-1.938,0.393-3.357c-1.467-2.095-2.854-4.246-4.301-6.354c-1.219-1.775-2.453-3.541-3.732-5.273    c-0.293-0.396-0.777-0.663-1.207-0.938c-0.355-0.229-0.742-0.24-1.125,0.026c-0.191,0.133-0.436,0.197-0.664,0.267    c-0.396,0.123-0.799,0.209-1.037-0.271c-0.219-0.435-0.057-0.944,0.434-1.23c0.619-0.361,1.273-0.662,1.893-1.024    c0.787-0.463,1.564-0.946,2.326-1.45c1.895-1.254,3.756-2.557,5.672-3.778c1.34-0.855,2.822-1.474,4.021-2.576    c0.596-0.548,1.09-0.296,1.545,0.411c0.645,1,1.371,1.947,2.074,2.909c0.234,0.321,0.578,0.586,0.73,0.938    c0.125,0.289,0.172,0.758,0.018,0.987c-0.258,0.383-0.732,0.237-1.086,0.031c-0.27-0.158-0.477-0.424-0.734-0.61    c-0.609-0.44-1.205-0.913-1.857-1.279c-1.029-0.577-2.059-0.092-3.006,0.245c-1.008,0.358-1.959,0.909-2.883,1.464    c-0.986,0.594-1.416,1.469-1.154,2.28c0.143,0.445,0.416,0.863,0.695,1.246c1.125,1.543,2.273,3.068,3.412,4.596    c1.445-0.512,2.469-2.071,2.25-3.511c-0.102-0.666-0.33-1.312-0.506-1.964c-0.062-0.23-0.227-0.468-0.195-0.679    c0.043-0.287,0.164-0.673,0.377-0.79c0.207-0.115,0.648-0.041,0.85,0.121c0.295,0.238,0.551,0.598,0.68,0.958    c0.842,2.359,2.5,4.16,4.055,6.034c0.279,0.338,0.562,0.675,0.828,1.025c0.322,0.426,0.252,0.816-0.148,1.156    c-0.391,0.331-0.805,0.362-1.197,0.031c-0.209-0.178-0.387-0.405-0.545-0.633c-0.879-1.259-2.059-1.659-3.543-1.323    C109.219,61.67,109.215,61.646,108.518,62.312z"/>
		<path fill-rule="evenodd" clip-rule="evenodd" fill="#235183" d="M272.303,34.083c0.037-0.908,0.008-0.978-1.074-1.393    c-0.377-0.145-0.656-0.333-0.627-0.758c0.031-0.499,0.395-0.649,0.832-0.683c0.895-0.069,1.701,0.349,2.32,0.827    c0.938,0.726,1.986,1.18,3.027,1.644c2.322,1.034,4.691,1.958,7.039,2.934c0.291,0.121,0.562,0.288,0.844,0.429    c0.672,0.336,1.324,0.726,2.023,0.991c0.994,0.377,1.123,0.513,0.779,1.466c-0.514,1.428-1.055,2.847-1.607,4.261    c-0.238,0.616-0.77,0.961-1.162,0.818c-0.438-0.159-0.693-0.809-0.395-1.464c0.455-0.995,0.361-1.956,0.014-2.913    c-0.158-0.434-0.395-0.905-0.736-1.196c-1.281-1.092-2.668-2.042-4.273-2.614c-1.156-0.412-1.475-0.345-2.008,0.759    c-0.9,1.865-1.705,3.776-2.537,5.674c-0.205,0.467,0.055,0.762,0.465,0.951c1.857,0.856,3.51,0.376,4.609-1.382    c0.205-0.329,0.443-0.666,0.744-0.894c0.178-0.134,0.605-0.173,0.754-0.052c0.207,0.169,0.387,0.546,0.35,0.801    c-0.055,0.375-0.264,0.753-0.49,1.07c-0.496,0.691-0.729,1.503-1.107,2.236c-0.889,1.722-1.385,3.57-2.021,5.375    c-0.051,0.148-0.115,0.335-0.234,0.41c-0.217,0.137-0.51,0.323-0.711,0.268c-0.203-0.056-0.465-0.376-0.469-0.585    c-0.012-0.468,0.084-0.949,0.203-1.408c0.531-2.076-0.326-3.765-2.271-4.513c-0.561-0.216-0.965-0.107-1.186,0.417    c-0.801,1.904-1.594,3.812-2.338,5.739c-0.326,0.847-0.043,1.739,0.732,2.153c1.047,0.559,2.121,1.089,3.336,1.232    c0.469,0.055,0.932,0.36,1.381,0.329c1.557-0.108,3.098-0.329,4.305-1.491c0.373-0.359,0.779-0.687,1.189-1.002    c0.383-0.295,0.838-0.409,1.191-0.014c0.383,0.428,0.23,0.886-0.125,1.293c-0.418,0.48-0.852,0.951-1.229,1.461    c-0.568,0.767-1.084,1.572-1.639,2.349c-0.436,0.61-0.848,0.687-1.539,0.411c-2.109-0.841-4.238-1.632-6.334-2.506    c-0.766-0.319-1.459-0.812-2.184-1.23c-0.312-0.18-0.602-0.407-0.93-0.547c-1.17-0.499-2.34-1.002-3.533-1.438    c-0.662-0.242-1.373-0.354-2.062-0.522c-0.232-0.057-0.477-0.081-0.695-0.169c-0.416-0.168-0.629-0.511-0.582-0.951    c0.053-0.486,0.414-0.687,0.855-0.646c0.426,0.039,0.875,0.098,1.252,0.279c0.471,0.226,0.811,0.146,1.217-0.123    c0.717-0.475,1.047-1.158,1.303-1.944c0.271-0.826,0.664-1.61,0.984-2.42c0.398-1.001,0.758-2.018,1.17-3.013    c0.213-0.515,0.525-0.987,0.762-1.494c0.234-0.501,0.436-1.019,0.639-1.534c0.264-0.667,0.453-1.37,0.785-1.999    C271.879,36.686,272.266,35.575,272.303,34.083z"/>
		<path fill-rule="evenodd" clip-rule="evenodd" fill="#235183" d="M40.883,250.87c2.109-0.641,4.086-1.241,6.062-1.839    c0.23-0.07,0.467-0.121,0.691-0.202c1.371-0.495,1.246-0.545,1.176-1.992c-0.062-1.304-0.596-2.351-1.088-3.481    c-0.881-2.022-2.598-2.804-4.531-3.331c-0.383-0.104-0.82-0.063-1.172-0.224c-0.377-0.172-0.752-0.45-0.996-0.78    c-0.256-0.349-0.012-0.82,0.398-0.751c1.619,0.272,3.174-0.336,4.768-0.275c1.451,0.056,1.631,0.233,2.137,1.619    c0.109,0.302,0.355,0.638,0.631,0.779c0.549,0.28,0.666,0.675,0.496,1.186c-0.27,0.812-0.051,1.563,0.143,2.351    c0.5,2.053,0.914,4.126,1.404,6.182c0.127,0.531,0.49,1.008,0.6,1.539c0.211,1.03,0.5,2.008,1.09,2.894    c0.258,0.389,0.332,0.851-0.141,1.158c-0.379,0.247-0.893,0.021-1.184-0.476c-0.141-0.241-0.242-0.506-0.379-0.75    c-0.494-0.877-1.312-1.199-2.227-0.796c-1.506,0.663-3.082,1.046-4.678,1.422c-1.775,0.418-3.49,1.085-5.242,1.604    c-1.34,0.397-2.701,0.722-4.049,1.097c-1.561,0.436-1.621,0.528-1.748,2.113c-0.027,0.357-0.029,0.748-0.182,1.054    c-0.117,0.236-0.439,0.468-0.695,0.5c-0.17,0.021-0.443-0.283-0.561-0.5c-0.127-0.236-0.15-0.538-0.182-0.814    c-0.297-2.76-1.23-5.344-2.1-7.955c-0.465-1.398-0.711-2.869-1.053-4.308c-0.211-0.89-0.402-1.785-0.631-2.67    c-0.195-0.752-0.074-1.133,0.645-1.455c0.545-0.244,1.139-0.374,1.697-0.587c0.666-0.254,1.35-0.487,1.969-0.833    c0.502-0.28,0.967-0.312,1.473-0.198c0.346,1.014,0.318,1.112-0.449,1.587c-0.342,0.21-0.688,0.41-1.031,0.614    c-1.41,0.835-1.873,2.216-1.793,3.692c0.074,1.381,0.42,2.761,0.768,4.11c0.283,1.09,0.922,1.32,1.984,1.007    c1.172-0.347,2.369-0.612,3.547-0.946c0.875-0.248,1.754-0.503,2.586-0.86c0.191-0.083,0.367-0.672,0.264-0.896    c-0.369-0.793-0.82-1.558-1.328-2.271c-0.18-0.253-0.602-0.416-0.934-0.462c-0.629-0.086-1.271-0.067-1.908-0.073    c-0.439-0.004-0.893,0.094-1.312,0.01c-0.258-0.052-0.652-0.36-0.652-0.553c0-0.287,0.229-0.69,0.48-0.834    c0.367-0.21,0.834-0.287,1.268-0.329c2.203-0.213,4.273-0.902,6.318-1.701c0.662-0.258,1.336-0.501,2.023-0.668    c0.266-0.064,0.781,0.021,0.842,0.174c0.111,0.276,0.086,0.77-0.1,0.965c-0.314,0.33-0.777,0.556-1.215,0.723    c-1.385,0.53-2.207,1.578-2.254,3.039c-0.014,0.476,0.061,0.957,0.125,1.432C40.697,250.22,40.797,250.522,40.883,250.87z"/>
		<path fill-rule="evenodd" clip-rule="evenodd" fill="#235183" d="M377.182,225.286c-0.498,1.341-0.189,2.381,0.135,3.404    c0.318,0.999,1.199,1.314,2.094,1.601c0.443,0.142,0.887,0.315,1.279,0.556c0.152,0.093,0.283,0.465,0.215,0.615    c-0.096,0.211-0.377,0.352-0.6,0.488c-0.088,0.054-0.236,0.034-0.354,0.017c-1.105-0.155-2.271-0.146-3.299-0.517    c-1.564-0.564-3.166-0.341-4.738-0.568c-0.471-0.068-0.959-0.097-1.398-0.256c-0.197-0.071-0.383-0.41-0.404-0.643    c-0.014-0.157,0.244-0.441,0.428-0.492c0.609-0.169,1.24-0.342,1.865-0.36c1.496-0.043,2.375-0.67,2.777-2.112    c0.58-2.083,0.58-2.079-1.537-2.307c-1.227-0.132-2.453-0.271-3.676-0.426c-0.312-0.04-0.621-0.13-0.918-0.236    c-1.041-0.373-1.865-0.048-2.078,1.062c-0.408,2.125-0.699,4.308-0.016,6.413c0.361,1.115,0.955,2.209,2.211,2.701    c0.398,0.155,0.758,0.449,1.086,0.736c0.684,0.603,0.816,1.019,0.521,1.41c-0.314,0.417-0.764,0.426-1.516,0.045    c-0.674-0.342-1.332-0.731-2.035-0.996c-0.738-0.278-1.514-0.483-2.289-0.623c-0.5-0.09-0.717-0.315-0.701-0.782    c0.012-0.398,0.062-0.796,0.115-1.192c0.271-2.012,0.537-4.024,0.828-6.034c0.164-1.141,0.322-2.287,0.57-3.412    c0.422-1.92,0.494-3.871,0.643-5.818c0.025-0.358,0.064-0.717,0.119-1.072c0.068-0.443,0.293-0.778,0.789-0.716    c0.441,0.055,0.705,0.364,0.748,0.813c0.031,0.318,0.006,0.642,0.031,0.96c0.09,1.068,0.461,1.5,1.518,1.677    c1.881,0.313,3.76,0.609,5.678,0.666c1.025,0.03,2.039,0.382,3.066,0.532c1.777,0.259,3.561,0.471,5.342,0.707    c1.301,0.172,2.025-0.312,2.383-1.578c0.074-0.264,0.148-0.573,0.33-0.747c0.176-0.167,0.518-0.292,0.738-0.238    c0.205,0.05,0.422,0.334,0.5,0.561c0.084,0.249,0.059,0.561,0,0.827c-0.652,2.889-0.902,5.829-1.209,8.767    c-0.217,2.091-0.664,4.158-0.996,6.238c-0.057,0.353-0.035,0.718-0.062,1.077c-0.059,0.778-0.244,0.989-1.041,0.975    c-0.555-0.01-1.104-0.154-1.658-0.219c-0.83-0.098-1.662-0.17-2.492-0.272c-0.236-0.029-0.479-0.088-0.691-0.19    c-0.576-0.279-0.631-0.893-0.086-1.216c0.258-0.155,0.596-0.189,0.904-0.244c0.312-0.056,0.635-0.059,0.949-0.104    c1.713-0.245,2.545-1.453,2.939-2.943c0.355-1.343,0.547-2.741,0.684-4.127c0.094-0.947-0.121-1.162-0.998-1.335    c-1.254-0.246-2.521-0.424-3.783-0.635c-0.314-0.053-0.623-0.137-0.938-0.182C378.5,225.447,377.846,225.371,377.182,225.286z"/>
		<path fill-rule="evenodd" clip-rule="evenodd" fill="#235183" d="M52.926,305.655c-1.463,0.154-1.424,0.138-1.846-0.853    c-0.516-1.212-1.125-2.376-2.189-3.227c-0.154-0.124-0.289-0.278-0.426-0.423c-0.295-0.315-0.49-0.668-0.188-1.068    c0.291-0.38,0.68-0.37,1.076-0.161c0.391,0.205,0.779,0.41,1.166,0.62c0.551,0.3,1.047,0.25,1.553-0.146    c1.604-1.251,3.201-2.508,4.844-3.705c1.418-1.035,2.92-1.956,4.34-2.989c1.479-1.076,2.912-2.216,4.348-3.352    c0.307-0.243,0.516-0.604,0.797-0.886c0.301-0.303,0.715-0.524,1.055-0.202c0.209,0.198,0.324,0.654,0.264,0.949    c-0.232,1.094-0.561,2.168-0.84,3.253c-0.188,0.729-0.35,1.466-0.527,2.198c-0.605,2.483-1.174,4.977-1.836,7.446    c-0.525,1.966-1.193,3.894-1.736,5.855c-0.162,0.582-0.115,1.22-0.18,2.013c0.396-0.177,0.6-0.215,0.73-0.333    c2.684-2.419,5.766-4.296,8.664-6.424c0.385-0.283,0.775-0.578,1.094-0.93c0.676-0.749,0.717-1.404,0.229-2.288    c-0.115-0.208-0.264-0.413-0.314-0.638c-0.092-0.417-0.025-0.813,0.438-0.997c0.465-0.185,0.77,0.045,0.979,0.439    c0.32,0.6,0.568,1.249,0.959,1.797c0.623,0.875,1.338,1.685,2.018,2.52c0.15,0.186,0.412,0.341,0.451,0.545    c0.062,0.313,0.098,0.781-0.078,0.951c-0.189,0.182-0.648,0.158-0.969,0.102c-0.201-0.035-0.367-0.289-0.541-0.452    c-0.994-0.925-1.754-0.954-2.842-0.134c-1.309,0.986-2.633,1.952-3.943,2.935c-1.725,1.293-3.441,2.597-5.168,3.888    c-0.189,0.141-0.414,0.234-0.627,0.342c-1.643,0.835-2.271,2-2.156,3.854c0.031,0.483,0.305,1.173-0.299,1.408    c-0.67,0.261-0.916-0.416-1.229-0.877c-0.928-1.376-1.906-2.72-2.799-4.119c-0.18-0.283-0.162-0.782-0.066-1.136    c0.623-2.314,1.32-4.609,1.939-6.925c0.441-1.653,0.779-3.334,1.207-4.992c0.189-0.734,0.467-1.448,0.742-2.156    c0.182-0.465,0.26-0.9-0.055-1.502c-0.395,0.262-0.758,0.473-1.088,0.725c-1.65,1.258-3.293,2.528-4.938,3.793    c-0.477,0.365-0.934,0.756-1.432,1.089c-1.037,0.696-1.135,1.652-0.852,2.751C52.77,304.656,52.826,305.115,52.926,305.655z"/>
		<path fill-rule="evenodd" clip-rule="evenodd" fill="#235183" d="M252.172,363.229c-0.096-4.001,3.012-6.701,6.859-7.077    c0.943-0.092,1.895-0.103,2.844-0.144c0.613-0.026,0.936-0.35,1.064-0.938c0.105-0.492,0.113-1.1,0.865-1.078    c0.592,0.018,0.887,0.387,1.006,1.232c0.229,1.597,0.811,3.08,1.449,4.547c0.141,0.325,0.354,0.692,0.307,1.006    c-0.051,0.342-0.295,0.765-0.582,0.936c-0.408,0.242-0.771-0.079-0.951-0.473c-0.432-0.935-1.148-1.583-1.906-2.264    c-1.41-1.266-2.986-1.377-4.703-1.05c-0.273,0.052-0.537,0.157-0.811,0.216c-2.154,0.472-3.201,2.681-2.125,4.602    c0.494,0.882,1.129,1.519,2.355,1.503c1.004-0.012,2.006,0.463,3.02,0.655c0.744,0.141,1.527,0.089,2.256,0.271    c1.654,0.412,3.32,0.828,4.918,1.415c0.961,0.353,1.393,1.331,1.879,2.232c0.859,1.593,1.107,3.233,0.779,4.978    c-0.301,1.608-0.971,3.039-2.271,4.087c-0.863,0.696-1.748,1.376-2.676,1.982c-1.18,0.77-2.576,0.752-3.914,0.911    c-0.555,0.065-1.115,0.11-1.674,0.124c-0.715,0.018-1.211,0.239-1.35,1.037c-0.092,0.523-0.525,0.652-1.016,0.619    c-0.533-0.035-0.82-0.355-0.857-0.839c-0.172-2.275-1.258-4.28-1.852-6.428c-0.096-0.342-0.053-0.807,0.113-1.116    c0.258-0.481,0.859-0.464,1.201-0.029c0.145,0.185,0.279,0.411,0.322,0.636c0.297,1.553,1.525,2.414,2.576,3.363    c0.434,0.391,1.176,0.424,1.762,0.663c1.145,0.468,2.246,0.319,3.361-0.126c1.469-0.587,2.645-1.441,3.123-3.047    c0.279-0.942,0.221-1.768-0.404-2.595c-0.893-1.185-1.908-1.819-3.496-1.882c-1.846-0.072-3.713-0.384-5.498-0.984    c-0.979-0.33-2.004-0.563-2.93-1.004c-1.672-0.797-2.529-2.269-2.891-4.031C252.199,364.518,252.219,363.867,252.172,363.229z"/>
		<path fill-rule="evenodd" clip-rule="evenodd" fill="#235183" d="M317.932,72.523c-0.453,0.545-1.076,1.085-1.42,1.767    c-0.34,0.678-0.762,1.2-1.369,1.614c-0.828,0.565-1.357,1.304-1.549,2.324c-0.148,0.782,0.109,1.318,0.695,1.767    c0.156,0.12,0.361,0.197,0.477,0.347c0.375,0.481,0.107,1.122-0.5,1.113c-0.367-0.005-0.814-0.137-1.082-0.374    c-0.832-0.74-1.576-1.578-2.389-2.339c-0.607-0.568-1.262-1.09-1.912-1.61c-0.748-0.597-1.527-1.152-2.266-1.762    c-0.27-0.223-0.52-0.521-0.654-0.838c-0.086-0.202-0.025-0.589,0.123-0.732c0.154-0.147,0.529-0.193,0.746-0.115    c0.443,0.159,0.855,0.413,1.26,0.662c0.674,0.415,1.229,0.218,1.713-0.306c0.941-1.02,2.053-1.887,2.789-3.097    c0.186-0.304,0.436-0.57,0.676-0.838c0.74-0.831,1.502-1.644,2.236-2.481c1.283-1.468,2.559-2.942,3.824-4.427    c0.957-1.125,1.008-1.836,0.275-3.162c-0.096-0.174-0.268-0.345-0.273-0.521c-0.006-0.257,0.023-0.63,0.188-0.749    c0.217-0.158,0.576-0.138,0.877-0.152c0.092-0.004,0.232,0.109,0.281,0.204c0.727,1.409,2.15,2.114,3.219,3.178    c0.76,0.757,1.586,1.48,2.488,2.053c2.246,1.424,3.541,3.615,4.535,5.908c0.727,1.677,0.309,3.472-1.021,4.905    c-1.125,1.212-2.447,1.685-4.156,1.648c-3.074-0.066-5.186-1.783-7.264-3.684c-0.086-0.08-0.178-0.155-0.271-0.227    C318.178,72.575,318.131,72.575,317.932,72.523z M327.33,68.421c-0.01-1.167-0.541-1.97-1.398-2.591    c-0.977-0.709-1.967-0.573-2.742,0.355c-0.127,0.151-0.232,0.327-0.322,0.503c-0.502,0.974-1.209,1.749-2.07,2.437    c-0.545,0.436-0.969,1.051-1.357,1.644c-0.328,0.497-0.127,1.009,0.262,1.418c1.059,1.116,3.451,1.458,4.654,0.528    c0.932-0.721,1.889-1.489,2.355-2.651C326.928,69.521,327.125,68.969,327.33,68.421z"/>
		<path fill-rule="evenodd" clip-rule="evenodd" fill="#235183" d="M304.316,355.064c0.322,2.518-0.857,4.656-2.467,6.625    c-0.219,0.267-0.545,0.474-0.861,0.629c-1.469,0.72-2.939,1.438-4.43,2.106c-1.098,0.491-1.33,0.728-1.771,1.782    c-0.141,0.335-0.494,0.621-0.814,0.827c-0.293,0.186-0.709,0.117-0.768-0.281c-0.377-2.484-2.234-4.08-3.547-6.001    c-0.045-0.066-0.113-0.116-0.158-0.182c-0.395-0.593-0.344-1.123,0.137-1.462c0.477-0.335,0.889-0.264,1.352,0.242    c0.189,0.206,0.387,0.408,0.551,0.633c1.443,1.995,3.521,2.589,5.781,2.249c2.021-0.305,3.594-1.485,4.346-3.505    c0.559-1.497-0.213-3.631-1.664-4.182c-0.82-0.311-1.801-0.331-2.697-0.276c-2.219,0.135-4.426,0.422-6.66,0.219    c-0.629-0.057-1.281,0.132-1.908,0.065c-0.486-0.051-1.02-0.23-1.41-0.519c-0.797-0.588-1.512-1.289-2.26-1.943    c-0.119-0.104-0.305-0.189-0.348-0.32c-0.51-1.568-1.242-3.111-0.826-4.828c0.6-2.471,2.236-4.055,4.418-5.226    c1.037-0.556,2.109-0.902,3.242-1.126c1.045-0.207,1.061-0.228,1.051-1.316c-0.006-0.7,0.195-0.941,0.834-1.1    c0.629-0.157,0.867,0.171,1.012,0.708c0.408,1.509,1.504,2.595,2.377,3.817c0.256,0.355,0.609,0.667,0.76,1.059    c0.104,0.272,0.035,0.725-0.143,0.952c-0.131,0.167-0.619,0.222-0.846,0.113c-0.498-0.235-0.986-0.549-1.375-0.934    c-0.721-0.71-1.576-0.957-2.537-1.195c-1.99-0.493-3.598,0.232-5.15,1.265c-1.725,1.146-1.646,3.711,0.1,4.833    c0.572,0.368,1.135,0.502,1.846,0.579c2.184,0.236,4.256-0.267,6.348-0.621c1.902-0.322,3.67-0.019,5.336,0.848    C303.285,350.705,304.523,352.397,304.316,355.064z"/>
		<path fill-rule="evenodd" clip-rule="evenodd" fill="#235183" d="M80.109,311.515c-1.871,0.379-3.777,0.787-5.111,2.466    c-0.311,0.391-0.779,0.655-1.174,0.981c-0.396,0.328-0.801,0.647-1.18,0.995c-0.855,0.781-1.689,1.583-2.543,2.365    c-0.795,0.728-1.609,1.434-2.406,2.159c-0.9,0.818-0.904,1.813-0.523,2.865c0.109,0.3,0.27,0.581,0.414,0.867    c0.172,0.346,0.289,0.732-0.117,0.946c-0.367,0.193-0.793,0.155-1.086-0.217c-0.662-0.845-1.305-1.707-1.975-2.546    c-0.471-0.589-0.998-1.134-1.451-1.736c-0.203-0.268-0.395-0.623-0.398-0.941c-0.008-0.603,0.6-0.9,1.117-0.593    c0.166,0.098,0.275,0.284,0.424,0.416c0.672,0.599,0.898,0.668,1.688,0.151c0.727-0.477,1.383-1.071,2.051-1.635    c0.732-0.618,1.447-1.257,2.16-1.897c0.477-0.427,0.959-0.85,1.398-1.313c1.773-1.875,3.844-3.345,6.105-4.568    c0.84-0.455,1.715-0.55,2.662-0.442c2.596,0.294,4.529,1.618,5.998,3.716c0.363,0.521,0.744,1.031,1.141,1.528    c0.98,1.231,1.033,2.755,1.217,4.195c0.1,0.789-0.127,1.696-0.451,2.444c-0.469,1.087-1.012,2.178-2.039,2.909    c-0.811,0.578-1.623,1.156-2.387,1.794c-0.609,0.509-1.113,1.142-1.721,1.655c-0.699,0.591-1.504,1.059-2.182,1.672    c-1.002,0.909-1.955,1.877-2.887,2.861c-0.658,0.695-0.648,0.943-0.158,1.809c0.176,0.311,0.486,0.592,0.533,0.916    c0.043,0.299-0.096,0.737-0.314,0.936c-0.332,0.301-0.66,0.026-0.893-0.288c-0.877-1.186-1.816-2.333-2.613-3.57    c-0.676-1.051-1.773-1.582-2.615-2.418c-0.396-0.394-0.873-0.719-1.211-1.156c-0.18-0.234-0.139-0.639-0.197-0.967    c0.334-0.034,0.719-0.189,0.988-0.073c0.465,0.2,0.867,0.556,1.275,0.87c0.344,0.263,0.646,0.384,1.088,0.154    c0.672-0.348,1.348-0.639,1.906-1.199c0.643-0.643,1.418-1.149,2.113-1.743c0.932-0.798,1.834-1.633,2.766-2.435    c0.664-0.572,1.373-1.092,2.025-1.676c0.799-0.714,1.695-1.374,2.309-2.229c1.369-1.902,2.016-4.448-0.148-6.22    c-0.855-0.702-1.582-1.614-2.811-1.705C80.658,311.603,80.422,311.557,80.109,311.515z"/>
		<path fill-rule="evenodd" clip-rule="evenodd" fill="#235183" d="M359.885,250.304c0.15-1.223,0.373-2.771,1.072-4.26    c0.525-1.124,0.91-2.295,1.879-3.141c1.174-1.025,2.344-2.077,4.041-2.038c0.633,0.014,1.279,0.059,1.891,0.207    c2.283,0.553,4.564,1.12,6.826,1.75c1.336,0.373,2.637,0.879,3.955,1.315c0.379,0.125,0.768,0.231,1.156,0.32    c0.953,0.217,1.404,0.02,1.893-0.814c0.182-0.311,0.332-0.641,0.525-0.943c0.252-0.394,0.648-0.492,1.049-0.312    c0.402,0.18,0.404,0.579,0.279,0.936c-0.277,0.791-0.623,1.559-0.881,2.354c-0.678,2.086-1.316,4.184-1.562,6.378    c-0.035,0.317-0.092,0.634-0.172,0.943c-0.1,0.389-0.346,0.644-0.777,0.587c-0.451-0.059-0.744-0.323-0.713-0.802    c0.021-0.354,0.117-0.704,0.189-1.053c0.291-1.396-0.107-2.118-1.5-2.525c-3.705-1.084-7.416-2.151-11.131-3.196    c-0.689-0.194-1.428-0.404-2.119-0.338c-0.764,0.073-1.492,0.466-2.244,0.698c-0.812,0.25-1.121,0.844-1.43,1.606    c-0.668,1.654-0.684,3.264-0.123,4.916c0.277,0.818,0.76,1.394,1.553,1.867c1.963,1.171,4.154,1.603,6.295,2.214    c0.27,0.077,0.562,0.092,0.809,0.212c1.779,0.87,3.746,1.11,5.615,1.674c1.279,0.385,1.951,0.002,2.453-1.234    c0.076-0.185,0.123-0.381,0.188-0.57c0.154-0.457,0.521-0.687,0.928-0.508c0.264,0.117,0.465,0.492,0.58,0.794    c0.07,0.189-0.043,0.468-0.119,0.69c-0.328,0.94-0.709,1.863-0.996,2.814c-0.158,0.522-0.156,1.09-0.252,1.633    c-0.055,0.307-0.1,0.645-0.264,0.893c-0.131,0.2-0.445,0.404-0.662,0.387c-0.199-0.016-0.457-0.291-0.547-0.509    c-0.146-0.365-0.219-0.772-0.254-1.167c-0.068-0.796-0.527-1.219-1.25-1.419c-1.115-0.311-2.238-0.591-3.346-0.926    c-2.9-0.878-5.84-1.659-8.668-2.729c-1.125-0.425-2.312-1.077-3.043-2.232C360.207,253.512,359.891,252.142,359.885,250.304z"/>
		<path fill-rule="evenodd" clip-rule="evenodd" fill="#235183" d="M373.945,269.027c0-0.32-0.002-0.641,0.002-0.961    c0.006-0.819-0.291-1.477-0.996-1.932c-0.471-0.304-0.93-0.625-1.398-0.932c-0.443-0.292-0.717-0.657-0.48-1.204    c0.178-0.405,0.699-0.525,1.264-0.298c0.445,0.178,0.928,0.319,1.303,0.597c0.928,0.684,1.924,1.098,3.078,1.216    c0.555,0.057,0.713,0.443,0.508,0.97c-0.824,2.115-1.555,4.277-2.527,6.323c-1.066,2.245-1.887,4.557-2.535,6.942    c-0.074,0.27-0.125,0.567-0.279,0.789c-0.648,0.938-1.035,1.961-1.232,3.084c-0.096,0.547-0.447,0.662-1.008,0.454    c-1.6-0.594-3.133-1.391-4.879-1.545c-0.225-0.02-0.566-0.276-0.604-0.47c-0.053-0.269,0.045-0.692,0.24-0.854    c0.283-0.234,0.703-0.375,1.078-0.409c0.471-0.042,0.992-0.038,1.424,0.124c1.016,0.38,1.783-0.109,2.572-0.578    c0.822-0.489,1.359-1.242,1.713-2.103c0.309-0.747,0.057-1.211-0.811-1.586c-0.877-0.378-1.773-0.708-2.666-1.046    c-1.635-0.618-3.271-1.222-4.797-2.1c-0.514-0.295-1.096-0.491-1.666-0.663c-1.836-0.553-3.414-1.753-5.328-2.115    c-0.508-0.096-0.988-0.288-1.502,0.023c-0.463,0.279-0.852,0.559-0.92,1.164c-0.033,0.295-0.182,0.61-0.365,0.848    c-0.318,0.409-0.766,0.412-1.186,0.153c-0.396-0.245-0.305-0.615-0.143-0.957c0.256-0.542,0.514-1.087,0.809-1.609    c0.969-1.71,1.764-3.478,2.156-5.425c0.172-0.851,0.518-1.676,0.861-2.479c0.127-0.294,0.441-0.575,0.738-0.714    c0.49-0.23,0.893,0.076,0.846,0.621c-0.027,0.35-0.191,0.688-0.273,1.035c-0.191,0.802-0.109,1.515,0.684,1.984    c0.307,0.182,0.586,0.428,0.91,0.562c1.285,0.529,2.586,1.021,3.877,1.536c0.221,0.088,0.445,0.193,0.633,0.336    c1.135,0.86,2.496,1.208,3.787,1.727c1.48,0.595,2.922,1.288,4.387,1.93c0.436,0.192,0.873,0.403,1.332,0.522    c0.801,0.208,1.115,0.009,1.246-0.812c0.111-0.708,0.135-1.431,0.197-2.146C373.979,269.03,373.963,269.029,373.945,269.027z"/>
		<path fill-rule="evenodd" clip-rule="evenodd" fill="#235183" d="M27.605,174.295c-0.363,0.836-0.695,1.582-1.008,2.334    c-0.332,0.796-0.076,1.504,0.434,2.109c0.631,0.748,1.441,1.246,2.383,1.552c0.404,0.132,0.814,0.337,1.135,0.611    c0.16,0.137,0.229,0.544,0.145,0.752c-0.078,0.195-0.414,0.408-0.631,0.401c-0.553-0.017-1.115-0.108-1.652-0.247    c-1.041-0.269-2.064-0.6-3.1-0.888c-0.742-0.207-1.072-0.562-1.133-1.323c-0.021-0.277-0.02-0.564,0.027-0.838    c0.186-1.098,0.369-2.197,0.602-3.286c0.25-1.17,0.564-2.326,0.834-3.492c0.205-0.886,0.527-1.774,0.547-2.667    c0.053-2.389,1.1-4.577,1.273-6.936c0.049-0.667,0.48-0.895,1.121-0.582c0.768,0.375,1.559,0.391,2.344,0.304    c0.92-0.101,1.711,0.289,2.555,0.486c0.111,0.026,0.275,0.091,0.305,0.176c0.121,0.352,0.293,0.729,0.252,1.073    c-0.018,0.155-0.5,0.383-0.754,0.362c-1.045-0.086-2.059-0.09-3.072,0.261c-1.195,0.415-2.555,2.425-2.391,4.1    c0.047,0.477,0.416,0.624,0.857,0.675c0.83,0.096,1.66,0.203,2.484,0.343c1.25,0.212,2.494,0.464,3.744,0.681    c0.426,0.074,0.865,0.081,1.295,0.144c0.35,0.052,0.768,0.043,1.027,0.236c0.592,0.438,1.246,0.431,1.918,0.547    c1.369,0.237,2.711,0.628,4.068,0.938c0.457,0.104,0.928,0.221,1.393,0.221c1.148,0,1.531-0.33,1.869-1.453    c0.115-0.382,0.203-0.78,0.379-1.133c0.189-0.38,0.57-0.686,0.971-0.446c0.225,0.134,0.379,0.604,0.348,0.899    c-0.066,0.587-0.262,1.163-0.439,1.732c-0.77,2.451-1.225,4.956-1.34,7.522c-0.012,0.238-0.066,0.475-0.107,0.711    c-0.127,0.72-0.41,0.982-0.982,0.918c-0.494-0.056-0.697-0.374-0.492-1.115c0.229-0.826,0.123-1.554-0.521-2.069    c-0.482-0.385-1.086-0.729-1.682-0.839c-2.311-0.428-4.693-0.562-6.941-1.192c-1.395-0.391-2.816-0.46-4.197-0.838    C30.172,174.687,28.822,174.522,27.605,174.295z"/>
		<path fill-rule="evenodd" clip-rule="evenodd" fill="#235183" d="M37.148,132.907c-0.16-2.061,0.805-4.002,2.488-5.65    c0.256-0.25,0.477-0.537,0.713-0.807c0.543-0.62,0.846-1.215,0.154-1.981c-0.189-0.211-0.203-0.838-0.025-1.065    c0.316-0.411,0.766-0.209,1.145,0.112c0.961,0.813,2.088,1.299,3.285,1.662c0.605,0.183,1.191,0.452,1.76,0.732    c0.428,0.211,0.709,0.592,0.502,1.082c-0.197,0.465-0.701,0.709-1.09,0.427c-0.943-0.684-1.809-0.222-2.729-0.03    c-1.152,0.241-2.229,0.624-3.113,1.411c-0.9,0.801-1.205,1.944-1.617,3.021c-0.277,0.725,0.1,1.323,0.355,1.945    c0.559,1.366,2.512,2.195,3.916,1.209c1.199-0.842,2.467-1.559,3.475-2.698c0.885-0.998,2.014-1.805,3.125-2.566    c1.201-0.823,2.623-0.87,4.035-0.761c0.277,0.021,0.551,0.133,0.824,0.126c1.633-0.04,2.756,0.787,3.713,2.022    c1.227,1.584,1.41,3.404,1.334,5.293c-0.107,2.634-1.557,4.649-3.156,6.565c-0.428,0.513-0.666,0.951-0.41,1.609    c0.195,0.502,0.051,0.958-0.424,1.248s-0.879,0.157-1.309-0.183c-0.914-0.721-1.912-1.268-3.076-1.543    c-0.766-0.182-1.492-0.566-2.201-0.925c-0.193-0.098-0.387-0.449-0.361-0.657c0.027-0.22,0.287-0.545,0.492-0.583    c0.459-0.087,1.025-0.186,1.408,0.004c1.375,0.683,2.656,0.21,3.953-0.158c1.033-0.293,1.518-1.246,2.234-1.922    c1.229-1.155,1.178-2.674,1.113-4.124c-0.082-1.809-2.484-2.963-4.082-2.09c-1.299,0.71-2.469,1.585-3.633,2.501    c-1.373,1.081-2.826,2.101-4.369,2.906c-0.744,0.388-1.775,0.236-2.678,0.302c-0.189,0.014-0.385-0.12-0.582-0.13    c-2.037-0.102-3.348-1.321-4.465-2.862C37.174,135.412,37.154,134.341,37.148,132.907z"/>
		<path fill-rule="evenodd" clip-rule="evenodd" fill="#235183" d="M301.832,48.002c-0.721,0.559-0.879,1.329-1.213,1.996    c-0.285,0.568-0.598,1.124-0.9,1.684c-0.377,0.701-0.762,1.398-1.135,2.102c-0.652,1.23-1.287,2.469-1.947,3.695    c-0.887,1.648-1.797,3.284-2.686,4.931c-0.619,1.146-0.348,2.293,0.699,3.036c0.098,0.069,0.211,0.114,0.312,0.178    c0.324,0.206,0.609,0.469,0.406,0.878c-0.219,0.441-0.611,0.619-1.105,0.446c-0.188-0.065-0.373-0.147-0.539-0.254    c-1.104-0.714-2.17-1.497-3.312-2.141c-1.213-0.683-2.504-1.223-3.746-1.853c-0.453-0.229-0.941-0.468-1.271-0.831    c-0.416-0.458-0.189-0.959,0.424-1.017c0.336-0.031,0.715,0.056,1.027,0.197c1.121,0.506,1.646,0.429,2.293-0.641    c0.842-1.398,1.584-2.858,2.375-4.288c0.52-0.938,0.943-1.916,1.652-2.763c0.467-0.558,0.617-1.372,0.961-2.045    c0.342-0.673,0.758-1.309,1.121-1.972c0.555-1.013,1.129-2.019,1.625-3.061c0.342-0.718,0.105-1.27-0.588-1.398    c-1.361-0.251-2.703-0.577-4.104,0.032c-0.748,0.325-1.328,0.619-1.602,1.439c-0.234,0.704-0.627,0.872-1.283,0.749    c-0.549-0.103-0.822-0.557-0.555-1.064c0.482-0.914,0.967-1.839,1.568-2.674c0.377-0.523,0.736-1,0.914-1.644    c0.199-0.709,0.869-0.967,1.412-0.501c1.346,1.153,3.117,1.505,4.525,2.545c1.055,0.778,2.246,1.372,3.379,2.042    c0.275,0.162,0.549,0.348,0.85,0.438c1.434,0.432,2.691,1.194,3.938,1.997c0.703,0.452,1.453,0.847,2.219,1.183    c0.609,0.267,0.764,0.692,0.605,1.248c-0.154,0.534-0.369,1.057-0.611,1.557c-0.436,0.896-0.914,1.772-1.373,2.656    c-0.057,0.106-0.098,0.221-0.158,0.324c-0.225,0.375-0.418,0.823-0.967,0.744c-0.436-0.062-0.67-0.627-0.541-1.302    c0.059-0.311,0.189-0.61,0.305-0.908c0.699-1.833,0.143-3.762-1.443-4.873C302.91,48.549,302.396,48.317,301.832,48.002z"/>
		<path fill-rule="evenodd" clip-rule="evenodd" fill="#235183" d="M83.344,72.834c0.211,0.481,0.506,1.175,0.82,1.86    c0.133,0.288,0.328,0.548,0.455,0.839c0.199,0.454,0.141,0.875-0.314,1.146c-0.414,0.248-0.91,0.079-1.236-0.391    c-0.52-0.749-1.006-1.521-1.557-2.246c-0.404-0.531-0.855-1.038-1.346-1.49c-0.688-0.632-0.736-0.905-0.021-1.529    c0.721-0.629,1.473-1.227,2.232-1.81c0.975-0.749,1.979-1.511,2.869-2.312c1.082-0.972,2.234-1.898,3.24-2.969    c0.432-0.46,0.896-0.894,1.375-1.306c0.91-0.781,1.842-1.537,2.764-2.304c0.775-0.645,1.326-0.635,1.904,0.16    c0.828,1.142,1.75,2.173,2.887,3.018c0.5,0.372,0.57,0.988,0.252,1.37c-0.318,0.381-0.951,0.422-1.369-0.061    c-0.59-0.682-1.396-0.887-2.15-1.235c-0.953-0.438-1.848-0.368-2.746,0.134c-0.383,0.214-0.807,0.359-1.186,0.579    c-0.627,0.363-0.762,0.945-0.281,1.499c0.938,1.084,1.945,2.109,2.891,3.188c1.391,1.588,2.75,3.204,4.129,4.803    c0.232,0.27,0.492,0.516,0.742,0.769c0.557,0.561,1.107,1.085,1.518,1.813c0.412,0.73,1.189,1.269,1.852,1.838    c0.449,0.384,0.971,0.289,1.453-0.017c0.338-0.213,0.656-0.471,1.02-0.623c0.477-0.198,0.959-0.156,1.273,0.33    c0.264,0.407,0.096,0.731-0.498,1.15c-1.332,0.938-2.719,1.812-3.957,2.86c-0.998,0.843-1.814,1.902-2.709,2.867    c-0.137,0.146-0.242,0.329-0.396,0.446c-0.41,0.31-1.086,0.272-1.301-0.092c-0.248-0.415-0.221-0.844,0.15-1.2    c0.143-0.138,0.326-0.238,0.459-0.384c0.645-0.714,0.701-1.586,0.08-2.366c-1.244-1.56-2.545-3.073-3.785-4.637    c-0.645-0.814-1.48-1.486-2.068-2.284c-0.826-1.12-1.701-2.146-2.703-3.103c-0.568-0.544-0.959-1.271-1.477-1.876    c-0.592-0.691-1.031-0.7-1.734-0.098C83.824,70.063,83.465,71.268,83.344,72.834z"/>
		<path fill-rule="evenodd" clip-rule="evenodd" fill="#235183" d="M331.303,310.134c-0.84,0.082-1.262,0.483-1.658,0.954    c-0.316,0.379-0.713,0.554-1.125,0.13c-0.367-0.376-0.332-0.791,0.006-1.174c0.342-0.39,0.686-0.779,1.055-1.142    c0.855-0.838,1.764-1.625,2.227-2.783c0.148-0.372,0.518-0.595,0.875-0.393c0.209,0.118,0.418,0.539,0.367,0.764    c-0.648,2.871,1.021,5.06,2.139,7.405c0.408,0.86,0.936,1.665,1.344,2.526c0.889,1.877,1.803,3.748,2.578,5.672    c0.721,1.783,1.52,3.51,2.512,5.157c0.193,0.322,0.227,0.886,0.08,1.232c-0.195,0.47-0.738,0.437-1.16,0.236    c-1.621-0.769-3.484-0.864-5.031-1.847c-0.322-0.205-0.738-0.325-1.123-0.36c-1.168-0.107-2.242-0.46-3.256-1.035    c-0.203-0.114-0.438-0.193-0.668-0.23c-1.818-0.295-3.508-0.977-5.225-1.613c-1.338-0.497-2.764-0.763-4.164-1.081    c-0.277-0.063-0.607,0.113-0.916,0.164c-0.531,0.088-1.062,0.165-1.541,0.238c-0.369-0.706-0.045-1.041,0.301-1.402    c1.184-1.232,2.404-2.436,3.502-3.741c0.74-0.879,1.297-1.913,1.941-2.874c0.451-0.674,0.828-0.863,1.232-0.635    c0.443,0.249,0.49,0.875,0.111,1.495c-0.041,0.068-0.094,0.13-0.146,0.19c-1.352,1.571-0.688,2.165,0.924,2.68    c0.416,0.133,0.824,0.298,1.227,0.47c0.771,0.329,1.273,0.246,1.797-0.388c1.039-1.258,2.076-2.519,3.082-3.806    c0.49-0.628,0.721-1.302,0.221-2.096C332.262,311.98,331.809,311.053,331.303,310.134z M330.396,319.988    c0.48,0.753,1.064,0.845,1.664,0.939c0.463,0.073,0.936,0.164,1.375,0.327c1.143,0.424,2.271,0.892,3.383,1.333    c0.535-0.503,0.465-0.92,0.193-1.452c-0.777-1.524-1.48-3.085-2.232-4.622c-0.127-0.256-0.357-0.461-0.648-0.828    C332.816,317.2,331.613,318.586,330.396,319.988z"/>
		<path fill-rule="evenodd" clip-rule="evenodd" fill="#235183" d="M68.096,106.835c0.016-0.238,0.088-0.422,0.025-0.533    c-0.561-1.011-1.111-2.031-1.732-3.006c-1.283-2.017-2.607-4.009-3.922-6.006c-0.285-0.434-0.557-0.891-0.914-1.261    c-0.682-0.706-1.332-0.605-1.852,0.234c-0.146,0.238-0.256,0.499-0.396,0.741c-0.246,0.43-0.637,0.493-1.027,0.283    s-0.584-0.608-0.361-1.02c0.281-0.524,0.609-1.038,0.998-1.486c0.814-0.938,1.643-1.857,2.123-3.029    c0.088-0.214,0.223-0.455,0.408-0.572c0.211-0.135,0.566-0.27,0.744-0.179c0.232,0.12,0.535,0.499,0.492,0.699    c-0.381,1.791,0.264,3.288,1.215,4.723c0.463,0.699,0.904,1.413,1.352,2.122c1.084,1.716,2.162,3.435,3.246,5.149    c1.152,1.82,2.391,3.592,3.432,5.472c0.527,0.951,1.129,1.809,1.814,2.631c0.254,0.305,0.363,0.641,0.086,0.977    c-0.303,0.366-0.721,0.604-1.158,0.318c-0.744-0.486-1.549-0.6-2.402-0.614c-0.271-0.004-0.547-0.115-0.812-0.198    c-0.229-0.071-0.443-0.235-0.672-0.249c-1.375-0.082-2.598-0.679-3.889-1.054c-1.24-0.359-2.559-0.446-3.842-0.656    c-0.236-0.039-0.473-0.084-0.703-0.146c-1.58-0.422-3.146-0.891-4.738-1.26c-1.045-0.242-2.121-0.353-3.186-0.501    c-0.705-0.098-1.336,0.122-1.932,0.502c-0.297,0.188-0.633,0.389-0.967,0.418c-0.264,0.023-0.67-0.135-0.793-0.344    c-0.119-0.203-0.055-0.644,0.1-0.85c0.256-0.34,0.674-0.553,0.982-0.862c0.412-0.414,0.814-0.846,1.168-1.31    c0.34-0.442,0.613-0.935,0.916-1.405c0.834-1.295,1.674-2.587,2.498-3.889c0.275-0.437,0.59-0.778,1.158-0.634    c0.533,0.135,0.715,0.688,0.422,1.256c-0.219,0.423-0.518,0.816-0.67,1.26c-0.24,0.705-0.059,1.123,0.635,1.288    c1.387,0.332,2.801,0.548,4.195,0.854c1.166,0.255,2.324,0.551,3.477,0.862C65.061,105.955,66.5,106.381,68.096,106.835z"/>
		<path fill-rule="evenodd" clip-rule="evenodd" fill="#235183" d="M54.713,147.009c-0.07,0.321-0.07,0.571-0.176,0.766    c-1.27,2.393-1.912,4.97-2.295,7.628c-0.057,0.396-0.084,0.813-0.238,1.171c-0.109,0.25-0.441,0.605-0.623,0.578    c-0.283-0.044-0.67-0.327-0.748-0.588c-0.119-0.393-0.057-0.862,0.016-1.284c0.098-0.563-0.051-0.887-0.605-1.117    c-0.822-0.341-1.592-0.31-2.449-0.094c-2.15,0.54-1.822,0.226-2.305,2.294c-0.252,1.084-0.646,2.137-0.998,3.197    c-0.453,1.367-0.252,1.872,1.055,2.6c0.66,0.368,1.281,0.819,1.971,1.119c0.775,0.337,0.936,0.226,1.281-0.543    c0.148-0.328,0.248-0.683,0.428-0.99c0.25-0.426,0.785-0.579,1.135-0.344c0.404,0.272,0.469,0.743,0.223,1.06    c-1.008,1.292-1.123,2.884-1.57,4.363c-0.047,0.152-0.074,0.335-0.176,0.441c-0.178,0.187-0.393,0.418-0.617,0.452    c-0.156,0.023-0.359-0.252-0.537-0.399c-0.029-0.023-0.055-0.066-0.059-0.104c-0.256-1.951-1.875-2.783-3.197-3.827    c-2.686-2.122-5.43-4.168-8.117-6.287c-0.807-0.637-1.467-1.46-2.266-2.11c-0.764-0.621-1.617-1.133-2.439-1.681    c-0.365-0.244-0.781-0.419-1.119-0.693c-0.682-0.553-0.559-1.299,0.289-1.52c0.646-0.169,1.344-0.151,2.018-0.22    c1.494-0.152,2.998-0.059,4.488-0.449c1.141-0.298,2.375-0.215,3.545-0.425c0.943-0.169,1.879-0.217,2.828-0.278    c1.295-0.083,2.574-0.386,3.861-0.594c0.197-0.032,0.404-0.117,0.588-0.081c1.328,0.26,2.508-0.368,3.736-0.647    c0.494-0.112,0.957-0.537,1.344-0.913C53.447,147.036,53.902,146.752,54.713,147.009z M42.352,160.004    c1.078-1.834,1.299-3.672,1.967-5.637c-2.633,0.561-5.117,0.204-7.67,1.148C38.5,157.232,40.486,158.38,42.352,160.004z"/>
		<path fill-rule="evenodd" clip-rule="evenodd" fill="#235183" d="M23.793,199.893c1.223-0.11,2.447-0.22,3.67-0.329    c0.16-0.015,0.318-0.036,0.479-0.036c0.445,0,0.812,0.161,0.859,0.646c0.043,0.462-0.25,0.727-0.676,0.865    c-0.828,0.269-1.68,0.488-2.473,0.838c-0.488,0.215-1.023,0.547-1.303,0.979c-1.037,1.601-1.461,3.328-0.896,5.246    c0.381,1.291,2.439,2.267,3.764,1.566c0.559-0.295,0.951-0.924,1.383-1.432c1.32-1.552,1.91-3.486,2.695-5.31    c0.689-1.602,1.76-2.83,3.229-3.721c0.291-0.176,0.672-0.204,1.01-0.299c0.449-0.126,0.936-0.182,1.338-0.396    c0.496-0.266,0.902-0.184,1.355,0.045c0.352,0.177,0.715,0.39,1.092,0.441c2.457,0.335,3.795,1.831,4.652,4.066    c0.83,2.161,0.506,4.232-0.006,6.344c-0.084,0.349-0.248,0.685-0.293,1.037c-0.076,0.596-0.109,1.177,0.463,1.638    c0.188,0.152,0.307,0.623,0.209,0.831c-0.1,0.21-0.525,0.416-0.775,0.382c-1.977-0.265-3.904,0.124-5.846,0.355    c-0.826,0.099-1.156-0.066-1.213-0.581c-0.062-0.56,0.324-0.96,0.988-1.161c0.945-0.287,1.875-0.629,2.811-0.953    c0.791-0.275,1.336-0.838,1.744-1.546c0.885-1.533,1.309-3.13,0.764-4.899c-0.25-0.817-0.596-1.427-1.379-1.948    c-1.689-1.125-3.535-0.393-4.412,1.075c-0.84,1.401-1.641,2.831-2.352,4.299c-0.744,1.535-1.617,2.967-3.021,3.949    c-0.834,0.585-1.822,0.951-2.746,1.409c-0.066,0.033-0.17,0.05-0.234,0.022c-1.047-0.46-2.301-0.204-3.27-0.941    c-0.125-0.096-0.268-0.178-0.412-0.244c-2.654-1.207-3.314-3.487-3.186-6.112c0.047-0.977,0.369-1.943,0.588-2.909    c0.186-0.827,0.449-1.638-0.424-2.29c-0.168-0.125-0.281-0.544-0.197-0.724c0.084-0.179,0.439-0.289,0.689-0.318    c0.436-0.05,0.879-0.014,1.32-0.014C23.785,199.808,23.789,199.851,23.793,199.893z"/>
		<path fill-rule="evenodd" clip-rule="evenodd" fill="#235183" d="M192.098,42.046c-1.32-0.209-2.219,0.355-3.191,0.53    c-0.428,0.077-0.869,0.21-1.289,0.165c-0.24-0.026-0.543-0.324-0.635-0.569c-0.053-0.141,0.215-0.479,0.414-0.621    c0.252-0.18,0.584-0.248,0.879-0.37c0.738-0.304,0.994-0.575,0.766-1.252c-0.369-1.087-0.873-2.133-1.379-3.167    c-0.188-0.383-0.562-0.497-1.029-0.325c-1.561,0.575-3.215,0.578-4.846,0.676c-1.391,0.084-1.73,0.354-1.943,1.748    c-0.078,0.512-0.176,1.022-0.285,1.529c-0.221,1.037,0.174,1.625,1.209,1.77c0.316,0.044,0.682-0.005,0.934,0.143    c0.268,0.157,0.553,0.476,0.602,0.763c0.072,0.417-0.316,0.595-0.699,0.66c-0.117,0.02-0.25,0.044-0.357,0.009    c-1.172-0.386-2.271,0.164-3.404,0.248c-0.543,0.04-1.125,0.04-1.637-0.114c-0.543-0.164-0.666-0.885-0.182-1.131    c1.879-0.953,1.883-2.87,2.369-4.494c0.701-2.333,1.18-4.73,1.826-7.081c0.391-1.425,0.975-2.797,1.371-4.221    c0.514-1.845,0.928-3.718,1.385-5.579c0.096-0.388,0.146-0.844,0.648-0.896c0.488-0.05,0.822,0.232,1.039,0.667    c0.266,0.537,0.607,1.045,0.807,1.605c0.74,2.1,2.125,3.84,3.162,5.774c0.734,1.37,1.49,2.729,2.223,4.1    c0.449,0.84,0.754,1.745,1.461,2.455c0.375,0.378,0.52,0.98,0.795,1.465c0.471,0.829,0.906,1.686,1.469,2.45    c0.312,0.427,0.844,0.698,1.287,1.025c0.225,0.166,0.523,0.256,0.695,0.46c0.158,0.188,0.305,0.512,0.248,0.718    c-0.057,0.199-0.363,0.433-0.584,0.463c-0.75,0.103-1.514,0.107-2.268,0.177C193.244,41.893,192.535,41.994,192.098,42.046z     M180.959,35.514c0.502,0.026,0.889,0.092,1.266,0.056c1.068-0.102,2.133-0.254,3.199-0.372c0.711-0.078,0.902-0.323,0.721-1.024    c-0.07-0.268-0.184-0.53-0.316-0.774c-0.643-1.192-1.283-2.386-1.959-3.559c-0.283-0.49-0.65-0.931-1.094-1.554    C182.174,30.817,181.158,32.989,180.959,35.514z"/>
		<path fill-rule="evenodd" clip-rule="evenodd" fill="#235183" d="M46.098,266.251c-2.197,0-4.395-0.026-6.59,0.012    c-1.025,0.018-2.051,0.132-3.07,0.251c-0.895,0.104-1.145,0.487-1.014,1.4c0.051,0.355,0.137,0.708,0.156,1.065    c0.023,0.428-0.102,0.818-0.582,0.921c-0.498,0.107-0.738-0.242-0.881-0.633c-0.234-0.636-0.416-1.292-0.643-1.931    c-0.348-0.975-0.736-1.935-1.061-2.917c-0.088-0.27-0.115-0.756,0.031-0.862c0.236-0.172,0.648-0.166,0.975-0.128    c0.213,0.024,0.482,0.189,0.592,0.372c0.539,0.886,1.443,1.021,2.305,1.022c1.551,0.002,3.1-0.185,4.652-0.221    c2.154-0.05,4.312-0.097,6.465-0.028c2.664,0.084,5.322,0.084,7.979-0.151c0.496-0.043,1.137-0.183,1.385,0.407    c0.258,0.615-0.287,0.917-0.721,1.217c-0.162,0.112-0.332,0.243-0.439,0.405c-1.383,2.098-3.416,3.559-5.16,5.305    c-1.266,1.269-2.449,2.622-3.697,3.909c-0.826,0.853-1.719,1.64-2.553,2.487c-0.799,0.814-1.57,1.66-2.334,2.508    c-0.553,0.613-0.93,1.279-0.682,2.174c0.105,0.38,0.066,0.834-0.418,1.004c-0.508,0.178-0.883-0.063-1.061-0.521    c-0.244-0.632-0.422-1.291-0.629-1.938c-0.666-2.093-1.35-4.179-2.568-6.038c-0.109-0.167-0.221-0.336-0.305-0.516    c-0.209-0.447-0.205-0.863,0.268-1.146c0.424-0.253,0.902-0.078,1.195,0.446c0.135,0.242,0.199,0.522,0.314,0.777    c0.475,1.048,1.086,1.159,1.896,0.357c1.695-1.679,3.326-3.434,5.119-5.003c1.086-0.95,2.105-1.934,2.982-3.067    c0.17-0.218,0.275-0.558,0.246-0.823c-0.014-0.109-0.457-0.22-0.713-0.24c-0.477-0.039-0.959-0.011-1.439-0.011    C46.1,266.16,46.1,266.205,46.098,266.251z"/>
		<path fill-rule="evenodd" clip-rule="evenodd" fill="#235183" d="M346.523,292.798c1.863-0.116,3.607,0.593,5.408,1.667    c1.896,1.134,3.029,2.768,4.16,4.489c0.277,0.421,0.389,0.959,0.537,1.455c0.092,0.304,0.041,0.663,0.174,0.939    c0.977,2.051,0.32,4.059-0.137,6.066c-0.582,2.56-2.156,4.419-4.264,5.88c-0.328,0.228-0.678,0.426-1.016,0.641    c-0.914,0.583-1.051,0.937-0.773,2.004c0.041,0.154,0.145,0.307,0.137,0.457c-0.014,0.294,0.006,0.748-0.156,0.84    c-0.27,0.153-0.684,0.132-1.014,0.068c-0.201-0.039-0.377-0.282-0.535-0.458c-1.037-1.146-2.301-1.972-3.676-2.648    c-0.215-0.106-0.439-0.204-0.631-0.344c-0.346-0.251-0.576-0.581-0.396-1.029c0.164-0.413,0.484-0.644,0.941-0.581    c0.355,0.049,0.711,0.125,1.053,0.228c2.336,0.695,4.352,0.102,6.258-1.347c1.803-1.371,2.305-3.218,2.109-5.288    c-0.068-0.735-0.627-1.443-1.027-2.125c-0.697-1.192-1.75-2.075-2.812-2.913c-1.346-1.061-2.727-2.087-4.162-3.02    c-0.574-0.374-1.332-0.476-2.014-0.672c-0.385-0.11-0.85-0.06-1.164-0.26c-0.895-0.566-1.707-0.234-2.5,0.133    c-2.559,1.182-3.934,3.171-3.971,6.023c-0.014,1.075,0.004,2.15-0.006,3.226c-0.004,0.358,0.016,0.74-0.102,1.064    c-0.078,0.21-0.375,0.441-0.596,0.468c-0.225,0.026-0.512-0.146-0.705-0.311c-0.133-0.112-0.203-0.356-0.213-0.546    c-0.102-1.992-0.314-3.977,0.068-5.975c0.26-1.356,0.947-2.491,1.76-3.503c0.918-1.143,2.016-2.164,3.141-3.113    c1.371-1.159,3.092-1.412,4.828-1.513C345.588,292.78,345.949,292.798,346.523,292.798z"/>
		<path fill-rule="evenodd" clip-rule="evenodd" fill="#235183" d="M387.666,206.432c-0.016,1.529-0.42,2.95-0.898,4.354    c-0.117,0.341-0.26,0.674-0.363,1.018c-0.283,0.927-0.105,1.317,0.701,1.916c0.252,0.186,0.545,0.544,0.531,0.808    c-0.025,0.447-0.465,0.602-0.898,0.611c-0.281,0.006-0.568,0.031-0.84-0.021c-1.592-0.301-3.184-0.169-4.775-0.021    c-0.16,0.015-0.357,0.094-0.471,0.029c-0.32-0.185-0.725-0.375-0.861-0.672c-0.076-0.169,0.27-0.587,0.5-0.82    c0.152-0.155,0.434-0.183,0.658-0.266c2.191-0.806,3.863-2.191,4.828-4.351c0.635-1.422,0.582-2.894,0.156-4.342    c-0.139-0.468-0.486-0.918-0.844-1.271c-1.617-1.601-3.633-2.208-5.861-2.239c-0.119-0.001-0.246,0.008-0.357-0.028    c-1.504-0.5-3.029-0.384-4.562-0.176c-1.697,0.23-3.377,0.521-4.889,1.385c-1.195,0.683-1.561,1.935-1.83,3.116    c-0.551,2.418-0.039,4.678,1.484,6.669c0.365,0.476,0.744,0.945,1.164,1.37c0.375,0.379,0.574,0.805,0.396,1.293    c-0.094,0.26-0.361,0.583-0.6,0.627c-0.234,0.045-0.678-0.159-0.77-0.369c-0.502-1.138-1.463-1.88-2.217-2.801    c-0.504-0.615-0.762-1.471-0.994-2.259c-0.27-0.915-0.461-1.867-0.549-2.816c-0.064-0.701,0.043-1.431,0.166-2.131    c0.246-1.409,0.479-2.811,1.236-4.09c2.002-3.377,4.822-5.366,8.836-5.399c1.238-0.011,2.504-0.063,3.709,0.161    c1.188,0.221,2.424,0.529,3.322,1.489c0.08,0.087,0.174,0.171,0.275,0.229c3.189,1.799,4.164,4.866,4.676,8.19    C387.768,205.895,387.688,206.181,387.666,206.432z"/>
		<path fill-rule="evenodd" clip-rule="evenodd" fill="#235183" d="M270.713,353.362c-0.355,0.11-0.816,0.24-1.268,0.394    c-0.48,0.164-0.879,0.12-1.092-0.396c-0.186-0.451,0.043-0.935,0.539-1.176c0.178-0.087,0.373-0.159,0.568-0.191    c1.604-0.267,2.975-1.115,4.41-1.786c1.406-0.656,2.76-1.428,4.141-2.137c0.207-0.106,0.477-0.247,0.666-0.192    c0.309,0.089,0.732,0.271,0.816,0.514c0.086,0.248-0.115,0.666-0.311,0.918c-0.15,0.197-0.488,0.245-0.734,0.376    c-0.82,0.438-1.119,1.091-0.918,1.991c0.027,0.116,0.059,0.234,0.105,0.344c0.729,1.726,1.447,3.457,2.195,5.175    c0.811,1.864,1.643,3.72,2.482,5.571c0.758,1.67,1.523,3.338,2.32,4.989c0.35,0.723,0.688,0.881,1.453,0.721    c0.502-0.105,0.979-0.328,1.473-0.485c0.465-0.149,0.902-0.113,1.1,0.404c0.189,0.491-0.02,0.854-0.498,1.062    c-0.109,0.048-0.219,0.11-0.334,0.131c-1.797,0.338-3.316,1.355-4.953,2.073c-1.191,0.523-2.299,1.241-3.441,1.876    c-0.279,0.155-0.533,0.36-0.824,0.483c-0.336,0.143-0.73,0.242-0.949-0.178c-0.197-0.382-0.182-0.791,0.191-1.082    c0.219-0.17,0.484-0.279,0.721-0.427c1.096-0.687,1.361-1.595,0.848-2.764c-0.848-1.93-1.678-3.868-2.516-5.802    c-0.064-0.146-0.09-0.334-0.197-0.432c-0.756-0.687-0.881-1.669-1.254-2.542c-0.896-2.091-1.852-4.157-2.816-6.218    C272.291,353.84,271.652,353.446,270.713,353.362z"/>
		<path fill-rule="evenodd" clip-rule="evenodd" fill="#235183" d="M363,297.372c-0.602-0.366-0.639-0.913-0.566-1.481    c0.035-0.274,0.156-0.537,0.227-0.807c0.369-1.424,0.115-1.908-1.184-2.583c-0.949-0.495-1.854-1.08-2.773-1.63    c-0.926-0.553-1.789-1.26-2.779-1.635c-1.559-0.59-2.812-1.682-4.301-2.356c-1.229-0.557-2.461-1.129-3.744-1.531    c-0.91-0.286-1.281,0.005-1.703,0.846c-0.09,0.177-0.137,0.435-0.281,0.513c-0.256,0.14-0.629,0.304-0.848,0.21    c-0.209-0.091-0.43-0.526-0.383-0.755c0.092-0.454,0.318-0.902,0.576-1.295c1.559-2.378,2.9-4.862,3.844-7.553    c0.24-0.682,0.611-0.935,1.02-0.736c0.527,0.256,0.604,0.72,0.449,1.226c-0.186,0.604-0.523,1.161-0.342,1.851    c0.141,0.529,0.332,0.947,0.854,1.22c2.891,1.514,5.658,3.253,8.676,4.537c1.051,0.447,1.982,1.172,2.984,1.74    c0.518,0.293,1.066,0.536,1.613,0.773c0.914,0.396,1.711,0.167,2.258-0.646c0.18-0.264,0.256-0.618,0.479-0.824    c0.199-0.186,0.582-0.366,0.799-0.293c0.23,0.076,0.447,0.434,0.508,0.704c0.051,0.234-0.084,0.543-0.213,0.777    c-0.404,0.735-0.785,1.496-1.285,2.164c-1.268,1.695-2.094,3.58-2.629,5.61C364.049,296.194,363.779,296.935,363,297.372z"/>
		<path fill-rule="evenodd" clip-rule="evenodd" fill="#235183" d="M45.08,186.906c-0.139,1.111-0.146,2.214-0.438,3.236    c-0.369,1.301-0.285,2.613-0.385,3.919c-0.062,0.832-0.018,1.672-0.033,2.509c-0.004,0.196,0.014,0.464-0.102,0.571    c-0.236,0.224-0.551,0.483-0.842,0.492c-0.186,0.006-0.475-0.381-0.555-0.642c-0.102-0.331-0.025-0.714-0.051-1.073    c-0.1-1.371-0.896-2.035-2.268-2.054c-1.07-0.015-2.143-0.155-3.211-0.264c-1.504-0.153-3.012-0.278-4.504-0.511    c-1.152-0.18-2.287-0.255-3.453-0.215c-0.9,0.031-1.811-0.163-2.715-0.259c-1.781-0.188-2.02-0.023-2.508,1.75    c-0.053,0.193-0.078,0.397-0.156,0.579c-0.162,0.375-0.35,0.763-0.873,0.615c-0.461-0.13-0.611-0.477-0.555-0.93    c0.133-1.03,0.236-2.066,0.41-3.089c0.336-1.982,0.551-3.962,0.16-5.962c-0.045-0.232-0.039-0.48-0.025-0.718    c0.029-0.445,0.207-0.792,0.721-0.773c0.463,0.017,0.725,0.298,0.803,0.747c0.021,0.117,0.012,0.239,0.016,0.358    c0.061,1.509,0.705,2.339,2.166,2.528c1.303,0.169,2.627,0.183,3.943,0.262c0.986,0.06,1.975,0.108,2.963,0.172    c0.756,0.049,1.512,0.102,2.266,0.179c0.83,0.085,1.652,0.241,2.482,0.292c1.271,0.078,2.551,0.167,3.818,0.104    c0.666-0.032,1.117-0.591,1.332-1.245c0.084-0.262,0.127-0.543,0.15-0.818c0.035-0.432-0.064-0.943,0.549-1.034    c0.441-0.065,0.842,0.449,0.893,1.078C45.086,186.79,45.08,186.87,45.08,186.906z"/>
		<path fill-rule="evenodd" clip-rule="evenodd" fill="#235183" d="M45.01,288.647c1.814-0.85,3.455-1.557,5.035-2.377    c1.443-0.75,2.803-1.664,4.238-2.432c1.191-0.636,2.441-1.162,3.662-1.741c0.604-0.287,1.225-0.547,1.797-0.888    c1.006-0.598,1.199-1.157,0.893-2.31c-0.072-0.27-0.172-0.536-0.215-0.81c-0.035-0.232-0.086-0.517,0.014-0.701    c0.139-0.256,0.395-0.586,0.629-0.611c0.223-0.024,0.555,0.257,0.707,0.49c0.166,0.252,0.146,0.619,0.268,0.911    c0.854,2.057,1.514,4.204,3.084,5.904c0.439,0.478,0.645,1.177,0.943,1.782c0.199,0.406,0.113,0.774-0.199,1.098    c-0.387,0.402-0.777,0.39-1.086-0.082c-0.195-0.3-0.307-0.654-0.492-0.96c-0.396-0.648-0.773-0.809-1.514-0.66    c-0.232,0.047-0.467,0.125-0.678,0.233c-2.057,1.058-4.158,2.046-6.148,3.217c-1.408,0.828-2.789,1.655-4.311,2.276    c-1.125,0.459-2.164,1.171-3.17,1.873c-0.803,0.559-0.914,1.317-0.527,2.211c0.127,0.292,0.348,0.586,0.346,0.877    c-0.004,0.314-0.137,0.784-0.359,0.896c-0.225,0.113-0.658-0.077-0.945-0.233c-0.182-0.099-0.311-0.364-0.387-0.581    c-0.873-2.5-2.137-4.805-3.486-7.067c-0.244-0.41-0.541-0.79-0.799-1.192c-0.25-0.396-0.379-0.825-0.014-1.209    c0.293-0.307,0.85-0.16,1.238,0.3C44.045,287.465,44.543,288.081,45.01,288.647z"/>
	</g>
</g>
<g id="colors">
</g>
</svg>